<svg width="41" height="40" viewBox="0 0 41 40" fill="none" xmlns="http://www.w3.org/2000/svg">
<g clip-path="url(#clip0)">
<mask id="path-1-inside-1" fill="white">
<path d="M39.7719 25.1788C40.0144 24.7219 40.2453 24.0305 40.0105 23.2849C39.7758 22.5394 39.2484 22.0675 38.865 21.8063C38.8071 21.3974 38.6623 20.7973 38.3047 20.2947C37.8352 19.6356 37.1224 19.321 36.7891 19.2039C36.1631 18.728 35.5755 18.5707 35.0606 18.7493C33.6905 19.2259 33.7914 20.7705 33.8728 22.0116C33.9706 23.506 33.9682 24.4403 33.1075 24.7856C32.7671 24.9232 32.311 24.8037 31.8556 24.46C31.0903 23.8811 30.8642 22.7666 31.3305 21.8645C32.6106 19.4052 34.1999 16.3379 34.1999 13.4003C34.1999 9.74945 32.6858 6.34159 29.9369 3.80516C27.2827 1.3578 23.8118 0 20.2099 0C16.6081 0 13.1372 1.3578 10.483 3.80516C7.73411 6.34395 6.22002 9.75181 6.22002 13.4003C6.22002 16.3395 7.80923 19.4044 9.08623 21.8677C9.55572 22.7667 9.32645 23.8811 8.56119 24.4631C8.10657 24.8076 7.65039 24.9264 7.30923 24.7887C6.73489 24.5583 6.39686 24.2563 6.54396 22.0148C6.62221 20.7737 6.72628 19.229 5.35616 18.7524C4.84129 18.5739 4.25052 18.7312 3.62767 19.207C3.29433 19.3242 2.58071 19.6388 2.11201 20.2979C1.75442 20.8004 1.60966 21.3989 1.55176 21.8095C1.16834 22.0706 0.639388 22.5464 0.40621 23.2881C0.173031 24.0298 0.40621 24.725 0.644865 25.182C0.363173 25.6358 0.0736566 26.3413 0.281796 27.1325C0.470373 27.8537 0.959421 28.3177 1.37022 28.593C1.32715 28.9702 1.36844 29.3523 1.49109 29.7114C1.61375 30.0704 1.81466 30.3975 2.07915 30.6685C2.29843 30.9016 2.56141 31.0888 2.85295 31.2193C3.1445 31.3499 3.45885 31.4211 3.77791 31.4291C3.87269 31.7149 4.03231 31.9747 4.24416 32.1879C4.45601 32.4011 4.71428 32.5619 4.99857 32.6576C5.27059 32.7566 5.55746 32.8082 5.84678 32.8101C4.6981 33.4834 3.67071 34.1621 3.67071 35.5581C3.67071 36.5019 4.15975 37.3104 5.0463 37.8248C5.21001 37.919 5.38025 38.0013 5.5557 38.071C5.77887 38.4578 6.09993 38.7783 6.48625 39C6.87257 39.2217 7.31039 39.3367 7.75524 39.3333C8.45262 39.3376 9.13108 39.1054 9.68092 38.6742C10.3448 38.9513 11.0728 39.0352 11.7819 38.9164C12.5711 38.7898 13.2949 38.3997 13.8367 37.8091C14.4368 38.0104 15.3734 38.1237 16.4337 37.533C17.3304 37.032 17.7686 36.3808 17.9791 35.9231C17.9994 35.879 18.0174 35.8358 18.0346 35.7941C18.7296 35.8041 19.4096 35.5906 19.9752 35.1845C20.0586 35.1252 20.1371 35.0592 20.2099 34.9871C20.2828 35.0592 20.3613 35.1252 20.4447 35.1845C21.0112 35.5897 21.6916 35.8026 22.3868 35.7925C22.404 35.8342 22.422 35.8774 22.4423 35.9215C22.6528 36.3792 23.091 37.0304 23.9877 37.5314C25.048 38.1237 25.9846 38.0088 26.5848 37.8075C27.1257 38.4 27.8496 38.7919 28.6396 38.9196C29.3484 39.0375 30.076 38.9525 30.739 38.6742C31.2892 39.1043 31.9676 39.3354 32.6646 39.3301C33.1095 39.3336 33.5473 39.2186 33.9336 38.9969C34.3199 38.7752 34.641 38.4546 34.8642 38.0678C35.0396 37.9981 35.2099 37.9159 35.3736 37.8216C36.2601 37.3073 36.7492 36.5019 36.7492 35.555C36.7492 34.159 35.7218 33.4771 34.5739 32.8062C34.8634 32.8046 35.1506 32.7533 35.4229 32.6544C35.7065 32.5589 35.9643 32.3985 36.1758 32.1859C36.3874 31.9732 36.5469 31.7142 36.642 31.4291C36.9609 31.4204 37.2749 31.3485 37.566 31.2174C37.8572 31.0864 38.1196 30.8988 38.3384 30.6654C38.6029 30.3943 38.8038 30.0673 38.9264 29.7082C39.0491 29.3491 39.0904 28.967 39.0473 28.5898C39.4581 28.3146 39.9472 27.8505 40.1357 27.1293C40.3454 26.3381 40.0559 25.6326 39.7719 25.1788ZM35.1819 35.5605C35.1819 35.8216 35.1138 36.1598 34.5887 36.465C34.4186 36.5619 34.239 36.6409 34.0527 36.7009H34.0441C33.3086 36.9368 32.2851 37.021 31.1208 36.9368C31.0794 36.922 31.0367 36.9112 30.9933 36.9046C30.9168 36.892 30.8389 36.892 30.7624 36.9046C29.5616 36.7823 28.3775 36.5292 27.2311 36.1496C27.1568 36.1005 27.074 36.0658 26.987 36.0473C26.955 36.0403 26.9226 36.0356 26.8899 36.0332C26.0041 35.7232 25.1486 35.3317 24.3344 34.8637C24.0441 34.6953 23.7788 34.5263 23.5362 34.3564C23.5048 34.3236 23.4708 34.2933 23.4345 34.2659C23.3947 34.2368 23.352 34.212 23.307 34.192C21.3211 32.722 20.9924 31.2812 20.9924 30.4884C20.9924 30.2798 20.91 30.0798 20.7632 29.9323C20.6165 29.7848 20.4175 29.7019 20.2099 29.7019C20.0024 29.7019 19.8034 29.7848 19.6566 29.9323C19.5099 30.0798 19.4275 30.2798 19.4275 30.4884C19.4275 31.2749 19.1019 32.7063 17.1434 34.1692C17.0859 34.1915 17.0315 34.2211 16.9814 34.2573C16.9302 34.2944 16.8834 34.3374 16.8422 34.3855C16.6105 34.5459 16.3575 34.7058 16.0831 34.8652C15.2609 35.3385 14.3964 35.7335 13.501 36.045C13.4789 36.0472 13.457 36.0506 13.4352 36.0552C13.3548 36.0718 13.2778 36.1021 13.2075 36.1449C12.055 36.5281 10.8644 36.7836 9.65666 36.907C9.57894 36.894 9.49963 36.894 9.42192 36.907C9.37846 36.9135 9.33574 36.9243 9.29437 36.9392C7.80767 37.0446 6.54631 36.8834 5.82643 36.4673C5.30139 36.1622 5.23331 35.824 5.23331 35.5629C5.23331 35.0335 5.67776 34.726 6.85383 34.0441C8.40548 33.1444 10.5315 31.912 11.9039 28.7456C11.9869 28.5543 11.991 28.3377 11.9151 28.1434C11.8392 27.9492 11.6897 27.7932 11.4994 27.7097C11.3091 27.6263 11.0936 27.6223 10.9003 27.6985C10.7071 27.7748 10.5519 27.9251 10.4689 28.1164C9.92114 29.3803 9.23569 30.2792 8.51268 30.9642C8.15297 30.9441 7.79505 30.8992 7.44147 30.8298C7.40676 30.8205 7.37147 30.8137 7.33583 30.8093C6.8826 30.718 6.43767 30.5891 6.00562 30.4239C5.66867 30.2939 5.34242 30.1374 5.02987 29.956C5.00576 29.929 4.9796 29.9041 4.95162 29.8812C4.88131 29.8269 4.80178 29.7859 4.71688 29.7601C4.00108 29.2962 3.41351 28.658 3.00873 27.9048C3.00325 27.8891 2.99778 27.8725 2.99073 27.856C2.97256 27.8142 2.95056 27.7742 2.92501 27.7365C2.55318 26.9774 2.36828 26.1396 2.38588 25.2936C2.389 25.2544 2.389 25.2149 2.38588 25.1757C2.44378 23.5366 3.17931 22.2059 3.46804 21.7442C4.0909 20.7572 4.67541 20.349 4.89137 20.2656C5.07838 20.4497 5.02205 21.3195 4.98292 21.9086C4.93519 22.6385 4.8812 23.4666 5.05021 24.2185C5.27244 25.2056 5.8366 25.8882 6.72941 26.2477C7.59014 26.5929 8.60032 26.4002 9.50251 25.7176C10.8718 24.681 11.2897 22.714 10.4743 21.1418C9.27638 18.8311 7.78497 15.9549 7.78497 13.4011C7.78497 10.1962 9.1191 7.19886 11.5409 4.96208C13.9063 2.78135 16.9994 1.5715 20.2092 1.5715C23.4189 1.5715 26.512 2.78135 28.8774 4.96208C31.3031 7.19886 32.6333 10.1962 32.6333 13.4011C32.6333 15.9549 31.1419 18.8279 29.944 21.1418C29.1286 22.7147 29.5465 24.681 30.9158 25.7176C31.818 26.4002 32.829 26.5929 33.6889 26.2477C34.5817 25.889 35.1459 25.2063 35.3681 24.2193C35.5371 23.4674 35.4831 22.6392 35.4354 21.9094C35.3963 21.3203 35.3399 20.4504 35.5269 20.2664C35.7429 20.345 36.3305 20.758 36.9487 21.745C37.1219 22.0246 37.2759 22.3157 37.4096 22.6164L37.4143 22.6267C37.7799 23.4284 37.9892 24.2931 38.0309 25.1741C38.0277 25.2139 38.0277 25.2539 38.0309 25.2936C38.0418 25.8881 37.9543 26.4803 37.7719 27.0459C37.6985 27.2716 37.6101 27.4921 37.5074 27.7058C37.4736 27.7512 37.4449 27.8003 37.4221 27.8521C37.4106 27.8791 37.4004 27.9067 37.3916 27.9347C36.9881 28.6746 36.4078 29.3019 35.703 29.7601C35.6181 29.7859 35.5386 29.8269 35.4682 29.8812C35.4384 29.9038 35.4104 29.9288 35.3845 29.956C35.0719 30.1361 34.7456 30.2912 34.4088 30.42C33.6043 30.7256 32.7586 30.9078 31.9002 30.9603C31.1779 30.2753 30.4917 29.3763 29.944 28.1124C29.9029 28.0177 29.8436 27.9321 29.7696 27.8604C29.6955 27.7887 29.6082 27.7324 29.5125 27.6946C29.3192 27.6183 29.1037 27.6224 28.9134 27.7058C28.7231 27.7892 28.5736 27.9453 28.4977 28.1395C28.4219 28.3338 28.4259 28.5503 28.5089 28.7416C29.8814 31.908 32.0074 33.1405 33.559 34.0402C34.7398 34.7213 35.1842 35.0288 35.1842 35.5581L35.1819 35.5605Z"/>
</mask>
<path d="M39.7719 25.1788C40.0144 24.7219 40.2453 24.0305 40.0105 23.2849C39.7758 22.5394 39.2484 22.0675 38.865 21.8063C38.8071 21.3974 38.6623 20.7973 38.3047 20.2947C37.8352 19.6356 37.1224 19.321 36.7891 19.2039C36.1631 18.728 35.5755 18.5707 35.0606 18.7493C33.6905 19.2259 33.7914 20.7705 33.8728 22.0116C33.9706 23.506 33.9682 24.4403 33.1075 24.7856C32.7671 24.9232 32.311 24.8037 31.8556 24.46C31.0903 23.8811 30.8642 22.7666 31.3305 21.8645C32.6106 19.4052 34.1999 16.3379 34.1999 13.4003C34.1999 9.74945 32.6858 6.34159 29.9369 3.80516C27.2827 1.3578 23.8118 0 20.2099 0C16.6081 0 13.1372 1.3578 10.483 3.80516C7.73411 6.34395 6.22002 9.75181 6.22002 13.4003C6.22002 16.3395 7.80923 19.4044 9.08623 21.8677C9.55572 22.7667 9.32645 23.8811 8.56119 24.4631C8.10657 24.8076 7.65039 24.9264 7.30923 24.7887C6.73489 24.5583 6.39686 24.2563 6.54396 22.0148C6.62221 20.7737 6.72628 19.229 5.35616 18.7524C4.84129 18.5739 4.25052 18.7312 3.62767 19.207C3.29433 19.3242 2.58071 19.6388 2.11201 20.2979C1.75442 20.8004 1.60966 21.3989 1.55176 21.8095C1.16834 22.0706 0.639388 22.5464 0.40621 23.2881C0.173031 24.0298 0.40621 24.725 0.644865 25.182C0.363173 25.6358 0.0736566 26.3413 0.281796 27.1325C0.470373 27.8537 0.959421 28.3177 1.37022 28.593C1.32715 28.9702 1.36844 29.3523 1.49109 29.7114C1.61375 30.0704 1.81466 30.3975 2.07915 30.6685C2.29843 30.9016 2.56141 31.0888 2.85295 31.2193C3.1445 31.3499 3.45885 31.4211 3.77791 31.4291C3.87269 31.7149 4.03231 31.9747 4.24416 32.1879C4.45601 32.4011 4.71428 32.5619 4.99857 32.6576C5.27059 32.7566 5.55746 32.8082 5.84678 32.8101C4.6981 33.4834 3.67071 34.1621 3.67071 35.5581C3.67071 36.5019 4.15975 37.3104 5.0463 37.8248C5.21001 37.919 5.38025 38.0013 5.5557 38.071C5.77887 38.4578 6.09993 38.7783 6.48625 39C6.87257 39.2217 7.31039 39.3367 7.75524 39.3333C8.45262 39.3376 9.13108 39.1054 9.68092 38.6742C10.3448 38.9513 11.0728 39.0352 11.7819 38.9164C12.5711 38.7898 13.2949 38.3997 13.8367 37.8091C14.4368 38.0104 15.3734 38.1237 16.4337 37.533C17.3304 37.032 17.7686 36.3808 17.9791 35.9231C17.9994 35.879 18.0174 35.8358 18.0346 35.7941C18.7296 35.8041 19.4096 35.5906 19.9752 35.1845C20.0586 35.1252 20.1371 35.0592 20.2099 34.9871C20.2828 35.0592 20.3613 35.1252 20.4447 35.1845C21.0112 35.5897 21.6916 35.8026 22.3868 35.7925C22.404 35.8342 22.422 35.8774 22.4423 35.9215C22.6528 36.3792 23.091 37.0304 23.9877 37.5314C25.048 38.1237 25.9846 38.0088 26.5848 37.8075C27.1257 38.4 27.8496 38.7919 28.6396 38.9196C29.3484 39.0375 30.076 38.9525 30.739 38.6742C31.2892 39.1043 31.9676 39.3354 32.6646 39.3301C33.1095 39.3336 33.5473 39.2186 33.9336 38.9969C34.3199 38.7752 34.641 38.4546 34.8642 38.0678C35.0396 37.9981 35.2099 37.9159 35.3736 37.8216C36.2601 37.3073 36.7492 36.5019 36.7492 35.555C36.7492 34.159 35.7218 33.4771 34.5739 32.8062C34.8634 32.8046 35.1506 32.7533 35.4229 32.6544C35.7065 32.5589 35.9643 32.3985 36.1758 32.1859C36.3874 31.9732 36.5469 31.7142 36.642 31.4291C36.9609 31.4204 37.2749 31.3485 37.566 31.2174C37.8572 31.0864 38.1196 30.8988 38.3384 30.6654C38.6029 30.3943 38.8038 30.0673 38.9264 29.7082C39.0491 29.3491 39.0904 28.967 39.0473 28.5898C39.4581 28.3146 39.9472 27.8505 40.1357 27.1293C40.3454 26.3381 40.0559 25.6326 39.7719 25.1788ZM35.1819 35.5605C35.1819 35.8216 35.1138 36.1598 34.5887 36.465C34.4186 36.5619 34.239 36.6409 34.0527 36.7009H34.0441C33.3086 36.9368 32.2851 37.021 31.1208 36.9368C31.0794 36.922 31.0367 36.9112 30.9933 36.9046C30.9168 36.892 30.8389 36.892 30.7624 36.9046C29.5616 36.7823 28.3775 36.5292 27.2311 36.1496C27.1568 36.1005 27.074 36.0658 26.987 36.0473C26.955 36.0403 26.9226 36.0356 26.8899 36.0332C26.0041 35.7232 25.1486 35.3317 24.3344 34.8637C24.0441 34.6953 23.7788 34.5263 23.5362 34.3564C23.5048 34.3236 23.4708 34.2933 23.4345 34.2659C23.3947 34.2368 23.352 34.212 23.307 34.192C21.3211 32.722 20.9924 31.2812 20.9924 30.4884C20.9924 30.2798 20.91 30.0798 20.7632 29.9323C20.6165 29.7848 20.4175 29.7019 20.2099 29.7019C20.0024 29.7019 19.8034 29.7848 19.6566 29.9323C19.5099 30.0798 19.4275 30.2798 19.4275 30.4884C19.4275 31.2749 19.1019 32.7063 17.1434 34.1692C17.0859 34.1915 17.0315 34.2211 16.9814 34.2573C16.9302 34.2944 16.8834 34.3374 16.8422 34.3855C16.6105 34.5459 16.3575 34.7058 16.0831 34.8652C15.2609 35.3385 14.3964 35.7335 13.501 36.045C13.4789 36.0472 13.457 36.0506 13.4352 36.0552C13.3548 36.0718 13.2778 36.1021 13.2075 36.1449C12.055 36.5281 10.8644 36.7836 9.65666 36.907C9.57894 36.894 9.49963 36.894 9.42192 36.907C9.37846 36.9135 9.33574 36.9243 9.29437 36.9392C7.80767 37.0446 6.54631 36.8834 5.82643 36.4673C5.30139 36.1622 5.23331 35.824 5.23331 35.5629C5.23331 35.0335 5.67776 34.726 6.85383 34.0441C8.40548 33.1444 10.5315 31.912 11.9039 28.7456C11.9869 28.5543 11.991 28.3377 11.9151 28.1434C11.8392 27.9492 11.6897 27.7932 11.4994 27.7097C11.3091 27.6263 11.0936 27.6223 10.9003 27.6985C10.7071 27.7748 10.5519 27.9251 10.4689 28.1164C9.92114 29.3803 9.23569 30.2792 8.51268 30.9642C8.15297 30.9441 7.79505 30.8992 7.44147 30.8298C7.40676 30.8205 7.37147 30.8137 7.33583 30.8093C6.8826 30.718 6.43767 30.5891 6.00562 30.4239C5.66867 30.2939 5.34242 30.1374 5.02987 29.956C5.00576 29.929 4.9796 29.9041 4.95162 29.8812C4.88131 29.8269 4.80178 29.7859 4.71688 29.7601C4.00108 29.2962 3.41351 28.658 3.00873 27.9048C3.00325 27.8891 2.99778 27.8725 2.99073 27.856C2.97256 27.8142 2.95056 27.7742 2.92501 27.7365C2.55318 26.9774 2.36828 26.1396 2.38588 25.2936C2.389 25.2544 2.389 25.2149 2.38588 25.1757C2.44378 23.5366 3.17931 22.2059 3.46804 21.7442C4.0909 20.7572 4.67541 20.349 4.89137 20.2656C5.07838 20.4497 5.02205 21.3195 4.98292 21.9086C4.93519 22.6385 4.8812 23.4666 5.05021 24.2185C5.27244 25.2056 5.8366 25.8882 6.72941 26.2477C7.59014 26.5929 8.60032 26.4002 9.50251 25.7176C10.8718 24.681 11.2897 22.714 10.4743 21.1418C9.27638 18.8311 7.78497 15.9549 7.78497 13.4011C7.78497 10.1962 9.1191 7.19886 11.5409 4.96208C13.9063 2.78135 16.9994 1.5715 20.2092 1.5715C23.4189 1.5715 26.512 2.78135 28.8774 4.96208C31.3031 7.19886 32.6333 10.1962 32.6333 13.4011C32.6333 15.9549 31.1419 18.8279 29.944 21.1418C29.1286 22.7147 29.5465 24.681 30.9158 25.7176C31.818 26.4002 32.829 26.5929 33.6889 26.2477C34.5817 25.889 35.1459 25.2063 35.3681 24.2193C35.5371 23.4674 35.4831 22.6392 35.4354 21.9094C35.3963 21.3203 35.3399 20.4504 35.5269 20.2664C35.7429 20.345 36.3305 20.758 36.9487 21.745C37.1219 22.0246 37.2759 22.3157 37.4096 22.6164L37.4143 22.6267C37.7799 23.4284 37.9892 24.2931 38.0309 25.1741C38.0277 25.2139 38.0277 25.2539 38.0309 25.2936C38.0418 25.8881 37.9543 26.4803 37.7719 27.0459C37.6985 27.2716 37.6101 27.4921 37.5074 27.7058C37.4736 27.7512 37.4449 27.8003 37.4221 27.8521C37.4106 27.8791 37.4004 27.9067 37.3916 27.9347C36.9881 28.6746 36.4078 29.3019 35.703 29.7601C35.6181 29.7859 35.5386 29.8269 35.4682 29.8812C35.4384 29.9038 35.4104 29.9288 35.3845 29.956C35.0719 30.1361 34.7456 30.2912 34.4088 30.42C33.6043 30.7256 32.7586 30.9078 31.9002 30.9603C31.1779 30.2753 30.4917 29.3763 29.944 28.1124C29.9029 28.0177 29.8436 27.9321 29.7696 27.8604C29.6955 27.7887 29.6082 27.7324 29.5125 27.6946C29.3192 27.6183 29.1037 27.6224 28.9134 27.7058C28.7231 27.7892 28.5736 27.9453 28.4977 28.1395C28.4219 28.3338 28.4259 28.5503 28.5089 28.7416C29.8814 31.908 32.0074 33.1405 33.559 34.0402C34.7398 34.7213 35.1842 35.0288 35.1842 35.5581L35.1819 35.5605Z" fill="black" stroke="black" stroke-width="2" mask="url(#path-1-inside-1)"/>
<path d="M18.0513 12.9183C18.0513 12.7097 17.9689 12.5097 17.8221 12.3622C17.6754 12.2147 17.4763 12.1318 17.2688 12.1318C17.0613 12.1318 16.8623 12.2147 16.7155 12.3622C16.5688 12.5097 16.4863 12.7097 16.4863 12.9183C16.4936 13.0416 16.4757 13.165 16.4337 13.2811C16.3918 13.3971 16.3267 13.5034 16.2424 13.5932C16.1581 13.683 16.0565 13.7546 15.9437 13.8036C15.8309 13.8525 15.7093 13.8777 15.5865 13.8777C15.4636 13.8777 15.3421 13.8525 15.2293 13.8036C15.1165 13.7546 15.0149 13.683 14.9306 13.5932C14.8463 13.5034 14.7812 13.3971 14.7393 13.2811C14.6973 13.165 14.6794 13.0416 14.6866 12.9183C14.6866 12.7097 14.6042 12.5097 14.4575 12.3622C14.3107 12.2147 14.1117 12.1318 13.9042 12.1318C13.6966 12.1318 13.4976 12.2147 13.3509 12.3622C13.2041 12.5097 13.1217 12.7097 13.1217 12.9183C13.1099 13.2511 13.1649 13.5828 13.2835 13.8938C13.402 14.2047 13.5817 14.4884 13.8117 14.7281C14.0418 14.9677 14.3175 15.1582 14.6224 15.2884C14.9273 15.4186 15.2552 15.4856 15.5865 15.4856C15.9178 15.4856 16.2457 15.4186 16.5506 15.2884C16.8555 15.1582 17.1312 14.9677 17.3613 14.7281C17.5913 14.4884 17.771 14.2047 17.8895 13.8938C18.0081 13.5828 18.0631 13.2511 18.0513 12.9183V12.9183Z" fill="black"/>
<path d="M26.6169 12.1318C26.4093 12.1318 26.2103 12.2147 26.0636 12.3622C25.9168 12.5097 25.8344 12.7097 25.8344 12.9183C25.8208 13.149 25.7201 13.3657 25.5529 13.5242C25.3856 13.6827 25.1644 13.771 24.9345 13.771C24.7047 13.771 24.4835 13.6827 24.3162 13.5242C24.1489 13.3657 24.0482 13.149 24.0347 12.9183C24.0347 12.7097 23.9522 12.5097 23.8055 12.3622C23.6588 12.2147 23.4597 12.1318 23.2522 12.1318C23.0447 12.1318 22.8457 12.2147 22.6989 12.3622C22.5522 12.5097 22.4697 12.7097 22.4697 12.9183C22.4925 13.5601 22.7621 14.168 23.2219 14.6139C23.6816 15.0598 24.2956 15.309 24.9345 15.309C25.5734 15.309 26.1874 15.0598 26.6472 14.6139C27.1069 14.168 27.3766 13.5601 27.3993 12.9183C27.3993 12.7097 27.3169 12.5097 27.1701 12.3622C27.0234 12.2147 26.8244 12.1318 26.6169 12.1318V12.1318Z" fill="black"/>
<path d="M20.1182 16.7312C15.8216 16.7312 14.7293 19.9975 14.6855 20.1367C14.6462 20.2368 14.6277 20.3439 14.6313 20.4514C14.6348 20.5589 14.6603 20.6645 14.706 20.7617C14.7518 20.8589 14.8169 20.9457 14.8974 21.0166C14.9778 21.0875 15.0719 21.1411 15.1738 21.1741C15.2757 21.207 15.3832 21.2186 15.4897 21.2081C15.5962 21.1976 15.6994 21.1652 15.793 21.113C15.8866 21.0609 15.9685 20.9899 16.0337 20.9047C16.0989 20.8194 16.146 20.7216 16.1722 20.6172C16.18 20.5944 16.9468 18.3042 20.1151 18.3042C23.2403 18.3042 24.0275 20.5284 24.058 20.6172C24.1085 20.7759 24.2079 20.9144 24.3418 21.0126C24.4757 21.1108 24.6371 21.1638 24.8029 21.1639C24.8841 21.1636 24.9649 21.1508 25.0423 21.1261C25.1402 21.0946 25.231 21.044 25.3094 20.9772C25.3878 20.9104 25.4524 20.8287 25.4994 20.7368C25.5464 20.645 25.575 20.5447 25.5834 20.4417C25.5918 20.3387 25.58 20.2351 25.5486 20.1367C25.5071 19.9943 24.4156 16.7312 20.1182 16.7312Z" fill="black"/>
</g>
<defs>
<clipPath id="clip0">
<rect width="40" height="40" fill="white" transform="translate(0.209961)"/>
</clipPath>
</defs>
</svg>
