<svg width="51" height="51" viewBox="0 0 51 51" fill="none" xmlns="http://www.w3.org/2000/svg">
<g clip-path="url(#clip0)">
<path d="M26.1193 43.5507C15.5406 43.5507 6.96484 34.9715 6.96484 24.3884C6.96484 13.8053 15.5406 5.22607 26.1193 5.22607C36.698 5.22607 45.2738 13.8053 45.2738 24.3884C45.2738 34.9715 36.698 43.5507 26.1193 43.5507ZM26.1193 41.2963C35.4535 41.2963 43.0203 33.7264 43.0203 24.3884C43.0203 15.0504 35.4535 7.48047 26.1193 7.48047C16.7851 7.48047 9.21831 15.0504 9.21831 24.3884C9.21831 33.7264 16.7851 41.2963 26.1193 41.2963ZM19.5182 33.9069L35.6339 17.7846C36.1611 17.2572 37.0457 17.3782 37.412 18.0278C38.4978 19.9533 39.0768 22.1301 39.0768 24.3884C39.0768 31.5475 33.2755 37.3511 26.1193 37.3511C23.8619 37.3511 21.686 36.772 19.7613 35.6857C19.112 35.3193 18.991 34.4343 19.5182 33.9069ZM22.2399 34.3722C23.462 34.8479 24.7719 35.0968 26.1193 35.0968C32.031 35.0968 36.8233 30.3025 36.8233 24.3884C36.8233 23.0404 36.5745 21.73 36.0991 20.5074L22.2399 34.3722ZM14.8266 30.749C13.7408 28.8235 13.1619 26.6467 13.1619 24.3884C13.1619 17.2293 18.9631 11.4257 26.1193 11.4257C28.3767 11.4257 30.5526 12.0048 32.4773 13.0911C33.1267 13.4575 33.2476 14.3425 32.7204 14.8699L16.6047 30.9922C16.0775 31.5196 15.1929 31.3986 14.8266 30.749ZM29.9987 14.4046C28.7766 13.9289 27.4667 13.68 26.1193 13.68C20.2077 13.68 15.4153 18.4743 15.4153 24.3884C15.4153 25.7364 15.6641 27.0468 16.1396 28.2694L29.9987 14.4046Z" fill="black"/>
</g>
<defs>
<clipPath id="clip0">
<rect width="50.4982" height="50.5189" fill="white"/>
</clipPath>
</defs>
</svg>
