<svg width="51" height="51" viewBox="0 0 51 51" fill="none" xmlns="http://www.w3.org/2000/svg">
<g clip-path="url(#clip0)">
<path d="M43.3537 23.5295L41.4433 16.4149C41.2166 15.5709 40.766 14.8017 40.1413 14.1899L34.5796 8.7539C33.9676 8.15615 33.206 7.72801 32.3773 7.51576L25.6034 5.78373C24.7946 5.57692 23.9392 5.581 23.1331 5.79779L15.9707 7.71668C15.1438 7.938 14.3863 8.37566 13.7802 8.98248L8.56263 14.209C7.95923 14.8131 7.52311 15.5687 7.30188 16.395L5.38967 23.5322C5.16844 24.3581 5.16844 25.2311 5.38876 26.0561L7.28918 33.1684C7.5154 34.0156 7.96693 34.7875 8.59436 35.4006L14.1646 40.8407C14.7762 41.438 15.5382 41.8657 16.3683 42.0784L23.1413 43.8059C23.5361 43.9066 23.9414 43.9565 24.3472 43.9565C24.7724 43.9565 25.1981 43.9012 25.6107 43.7905L32.7653 41.8712C33.5895 41.6503 34.3448 41.2145 34.9505 40.6104L40.1766 35.3879C40.7823 34.7838 41.2202 34.026 41.4433 33.1965L43.3537 26.0588C43.5749 25.2316 43.5749 24.3572 43.3537 23.5295ZM41.5602 24.0107C41.5881 24.115 41.5855 24.2235 41.602 24.33H35.9571L35.3208 21.9598C35.3203 21.9575 35.3201 21.9552 35.3195 21.953L35.3072 21.9091L34.6341 19.4015L39.5171 16.5797C39.5594 16.6867 39.6199 16.7855 39.6498 16.897L41.5602 24.0107ZM31.7052 32.1461L31.6401 32.211C30.4013 33.449 28.8525 34.3435 27.1625 34.7988L26.8979 34.8697C25.2447 35.3128 23.4933 35.3234 21.8341 34.9015L21.8222 34.8985C20.1234 34.4646 18.5626 33.588 17.3063 32.3627L17.0229 32.0858C15.7391 30.8292 14.8149 29.2484 14.3501 27.5137L14.3143 27.3799C13.8635 25.6875 13.8646 23.8986 14.317 22.2055L14.37 22.0078C14.8246 20.3141 15.7197 18.7623 16.9586 17.5211L17.0928 17.3873C18.3367 16.1406 19.8931 15.2412 21.5936 14.7859L21.8402 14.7196C22.6875 14.4929 23.5602 14.379 24.4333 14.379C25.2688 14.379 26.1039 14.4829 26.9172 14.6911C28.62 15.1265 30.184 16.0063 31.4407 17.2349L31.7136 17.5011C32.9984 18.7574 33.9241 20.3389 34.3901 22.0764L34.4228 22.1961C34.8797 23.8968 34.8797 25.6942 34.4246 27.3936L34.3765 27.5727C33.9206 29.2744 33.0214 30.8309 31.777 32.0743L31.7052 32.1461ZM38.8429 15.5183C38.9223 15.596 38.9762 15.6934 39.0463 15.779L34.1662 18.599L30.331 14.8505L33.0355 9.89861C33.1159 9.9625 33.2075 10.0107 33.2812 10.0827L38.8429 15.5183ZM31.9167 9.31537C32.026 9.34332 32.1234 9.40064 32.2284 9.44043L29.5209 14.3976L24.8363 13.1997V7.54479C24.9389 7.55992 25.0434 7.55766 25.1442 7.58334L31.9167 9.31537ZM16.4513 9.51084L23.6137 7.59196C23.7098 7.56616 23.81 7.56939 23.9079 7.55335V13.2041L18.9778 14.5245L16.1535 9.6342C16.2539 9.59537 16.3465 9.53885 16.4508 9.51084H16.4513V9.51084ZM15.094 10.295C15.1704 10.2185 15.2656 10.1665 15.3494 10.0989L18.1735 14.9889L14.5706 18.5985L9.68188 15.7756C9.74898 15.6923 9.8006 15.5976 9.87642 15.5215L15.094 10.295ZM9.09531 16.8762C9.12319 16.7723 9.17929 16.6802 9.21788 16.5803L14.1068 19.4034L13.4733 21.7674C13.4729 21.7688 13.4723 21.7702 13.4719 21.7716L13.4211 21.9612C13.4208 21.9625 13.4207 21.9638 13.4203 21.9651L12.7867 24.33H7.14139C7.15788 24.2242 7.15533 24.1164 7.1831 24.0125L9.09531 16.8762ZM7.18265 25.5763C7.15494 25.4725 7.15754 25.3646 7.14111 25.2588H12.7865L13.4169 27.6178C13.4178 27.6211 13.418 27.6243 13.4189 27.6276L13.4506 27.7464C13.4514 27.7496 13.453 27.7526 13.4538 27.7559L14.1035 30.187L9.21641 33.0083C9.17385 32.9006 9.1131 32.801 9.08307 32.6885L7.18265 25.5763ZM9.89184 34.0718C9.81171 33.9935 9.75736 33.8954 9.68681 33.8093L14.5713 30.9895L16.3744 32.7505C16.3769 32.753 16.379 32.7559 16.3815 32.7584L16.653 33.0232C16.6547 33.0249 16.6567 33.0262 16.6584 33.0278L18.4129 34.7413L15.7082 39.696C15.6277 39.6321 15.5358 39.5839 15.4621 39.5119L9.89184 34.0718ZM16.8276 40.2784C16.7185 40.2505 16.6213 40.1934 16.5166 40.1538L19.2239 35.1941L21.5912 35.7978C21.5937 35.7984 21.5961 35.7996 21.5986 35.8002C21.6012 35.8009 21.6039 35.801 21.6065 35.8017L23.9079 36.3887V42.0432C23.8053 42.028 23.7009 42.0313 23.6001 42.0054L16.8276 40.2784ZM25.1301 41.9963C25.0341 42.022 24.9342 42.0198 24.8363 42.0359V36.3841L27.1387 35.7667C27.1394 35.7665 27.1404 35.7664 27.1411 35.7662L27.3932 35.6991C27.3963 35.6982 27.3992 35.6969 27.4022 35.696L29.7591 35.0639L32.5802 39.9544C32.4805 39.993 32.3884 40.0492 32.2848 40.077L25.1301 41.9963ZM33.6385 39.2956C33.5621 39.3716 33.4674 39.4233 33.3839 39.4906L30.5628 34.6002L32.3619 32.803L32.4326 32.7325C32.4329 32.7322 32.4332 32.7318 32.4335 32.7314L34.1735 30.9932L39.0612 33.8175C38.9934 33.9014 38.9414 33.9967 38.8646 34.0732L33.6385 39.2956ZM39.6498 32.7148C39.6217 32.8198 39.5651 32.9126 39.5261 33.0133L34.6382 30.1889L35.9581 25.2588H41.602C41.5855 25.3652 41.5881 25.4737 41.5602 25.5781L39.6498 32.7148Z" fill="black"/>
</g>
<defs>
<clipPath id="clip0">
<rect width="50.4982" height="50.5189" fill="white" transform="translate(0 0.405762)"/>
</clipPath>
</defs>
</svg>
