<svg width="51" height="52" viewBox="0 0 51 52" fill="none" xmlns="http://www.w3.org/2000/svg">
<g clip-path="url(#clip0)">
<path d="M24.0299 12.0752C15.1964 12.0752 8.00977 19.2645 8.00977 28.1019C8.00977 36.9393 15.1964 44.1285 24.0299 44.1285C32.8633 44.1285 40.05 36.9393 40.05 28.1019C40.05 19.2645 32.8633 12.0752 24.0299 12.0752ZM24.0299 40.6445C17.1166 40.6445 11.4924 35.0176 11.4924 28.1019C11.4924 21.1861 17.1166 15.5593 24.0299 15.5593C30.9431 15.5593 36.5673 21.1861 36.5673 28.1019C36.5673 35.0176 30.9431 40.6445 24.0299 40.6445Z" fill="black"/>
<path d="M24.0295 21.9734C23.6449 21.9734 23.333 22.285 23.333 22.6702V28.1018C23.333 28.4869 23.6449 28.7986 24.0295 28.7986C24.4142 28.7986 24.7261 28.4869 24.7261 28.1018V22.6702C24.7261 22.285 24.4142 21.9734 24.0295 21.9734Z" fill="black"/>
<path d="M21.1951 10.915C22.1145 10.7547 23.0618 10.6781 24.03 10.6781C24.9912 10.6781 25.9385 10.7547 26.8579 10.915C27.9862 10.8941 28.9057 9.96037 28.9057 8.82457C28.9057 8.25318 28.6828 7.73057 28.2927 7.34733C27.8957 6.95014 27.3733 6.73413 26.8161 6.73413H21.2439C20.0946 6.73413 19.1543 7.66788 19.1543 8.82457C19.1543 9.38201 19.3702 9.90462 19.7672 10.3018C20.1503 10.685 20.6588 10.9011 21.1951 10.915Z" fill="black"/>
<path d="M24.0295 20.1321C24.4142 20.1321 24.7261 19.8202 24.7261 19.4353C24.7261 19.0505 24.4142 18.7385 24.0295 18.7385C23.6449 18.7385 23.333 19.0505 23.333 19.4353C23.333 19.8202 23.6449 20.1321 24.0295 20.1321Z" fill="black"/>
<path d="M30.1555 22.6705C30.5402 22.6705 30.8521 22.3585 30.8521 21.9737C30.8521 21.5888 30.5402 21.2769 30.1555 21.2769C29.7708 21.2769 29.459 21.5888 29.459 21.9737C29.459 22.3585 29.7708 22.6705 30.1555 22.6705Z" fill="black"/>
<path d="M32.6926 28.7986C33.0773 28.7986 33.3891 28.4867 33.3891 28.1018C33.3891 27.717 33.0773 27.405 32.6926 27.405C32.3079 27.405 31.9961 27.717 31.9961 28.1018C31.9961 28.4867 32.3079 28.7986 32.6926 28.7986Z" fill="black"/>
<path d="M30.1555 34.9268C30.5402 34.9268 30.852 34.6149 30.852 34.23C30.852 33.8452 30.5402 33.5332 30.1555 33.5332C29.7708 33.5332 29.459 33.8452 29.459 34.23C29.459 34.6149 29.7708 34.9268 30.1555 34.9268Z" fill="black"/>
<path d="M24.0295 37.4654C24.4142 37.4654 24.7261 37.1534 24.7261 36.7686C24.7261 36.3838 24.4142 36.0718 24.0295 36.0718C23.6449 36.0718 23.333 36.3838 23.333 36.7686C23.333 37.1534 23.6449 37.4654 24.0295 37.4654Z" fill="black"/>
<path d="M17.9045 34.9268C18.2892 34.9268 18.6011 34.6149 18.6011 34.23C18.6011 33.8452 18.2892 33.5332 17.9045 33.5332C17.5199 33.5332 17.208 33.8452 17.208 34.23C17.208 34.6149 17.5199 34.9268 17.9045 34.9268Z" fill="black"/>
<path d="M15.3664 28.7986C15.7511 28.7986 16.063 28.4867 16.063 28.1018C16.063 27.717 15.7511 27.405 15.3664 27.405C14.9818 27.405 14.6699 27.717 14.6699 28.1018C14.6699 28.4867 14.9818 28.7986 15.3664 28.7986Z" fill="black"/>
<path d="M17.9046 22.6705C18.2892 22.6705 18.6011 22.3585 18.6011 21.9737C18.6011 21.5888 18.2892 21.2769 17.9046 21.2769C17.5199 21.2769 17.208 21.5888 17.208 21.9737C17.208 22.3585 17.5199 22.6705 17.9046 22.6705Z" fill="black"/>
<path d="M38.1554 17.918L38.2668 17.8065C38.7892 17.2769 39.0817 16.5731 39.0817 15.8275C39.0817 15.075 38.7892 14.3712 38.2668 13.8556C37.7374 13.333 37.0409 13.0403 36.2956 13.0403C35.5503 13.0403 34.8538 13.333 34.3245 13.8556L34.2061 13.974C35.7245 15.068 37.0549 16.3989 38.1554 17.918Z" fill="black"/>
</g>
<defs>
<clipPath id="clip0">
<rect width="50.4982" height="50.5189" fill="white" transform="translate(0 0.811279)"/>
</clipPath>
</defs>
</svg>
