<svg width="51" height="52" viewBox="0 0 51 52" fill="none" xmlns="http://www.w3.org/2000/svg">
<g clip-path="url(#clip0)">
<path d="M42.609 33.2483L40.7688 24.9422C40.6161 24.25 40.3097 23.5841 39.8826 23.0164L27.8232 6.99368C27.3659 6.38631 26.6683 6.03735 25.9075 6.03735C25.9075 6.03735 25.9075 6.03735 25.9066 6.03735C25.1468 6.03735 24.4482 6.38537 23.99 6.99368L11.9315 23.0154C11.4997 23.5888 11.2018 24.2358 11.0444 24.9413L9.20418 33.2492C8.85914 34.8082 9.28619 36.4521 10.3449 37.646L14.8059 42.6804C15.7543 43.749 17.1165 44.362 18.5438 44.362H33.2694C34.6976 44.362 36.0608 43.749 37.0073 42.6795L41.4693 37.646C42.5289 36.4511 42.955 34.8072 42.609 33.2483ZM40.7236 33.667C40.7923 33.9768 40.794 34.2894 40.7663 34.599L34.2452 32.8203L33.7142 30.4245C33.7134 30.4208 33.7133 30.417 33.7124 30.4132C33.7115 30.409 33.7099 30.405 33.709 30.4008L33.1791 28.0097L38.8387 25.2273C38.8508 25.2724 38.8733 25.3145 38.8833 25.36L40.7236 33.667ZM20.1663 34.9506C19.1236 33.7755 18.7051 32.1571 19.0444 30.6226C19.4376 28.8486 20.1908 27.2132 21.2825 25.7627L24.7442 21.1631C25.0214 20.7944 25.4447 20.5831 25.9066 20.5831C26.3668 20.5831 26.7883 20.7932 27.0665 21.1595L30.5391 25.7739C31.6259 27.2216 32.375 28.8506 32.7676 30.6153L32.7708 30.6292C33.1076 32.1617 32.689 33.7771 31.6478 34.9506C30.7155 36.0031 29.3749 36.6067 27.9684 36.6067H23.8458C22.4392 36.6067 21.0987 36.0031 20.1663 34.9506ZM38.3403 24.1773C38.3794 24.2296 38.4047 24.2911 38.4405 24.3459L32.7706 27.1333L31.3107 25.1935C31.3079 25.1897 31.3056 25.1855 31.3028 25.1818L27.8411 20.5822C27.8399 20.5805 27.8382 20.5794 27.837 20.5778L26.3893 18.6542V8.29966L38.3403 24.1773ZM25.4239 8.29966V18.6542L19.0426 27.1333L13.3735 24.346C13.4094 24.2914 13.4342 24.2309 13.4738 24.1783L25.4239 8.29966ZM11.0896 33.667L12.9289 25.361C12.9394 25.3142 12.9617 25.2728 12.9741 25.2269L18.6342 28.0097L18.1029 30.409C18.1026 30.4104 18.102 30.4118 18.1017 30.4132C18.1014 30.4145 18.1014 30.4158 18.1011 30.4171L17.5689 32.8204L11.0472 34.5992C11.0193 34.2895 11.0209 33.9768 11.0896 33.667ZM11.7892 36.3653C11.5701 36.1179 11.4131 35.8327 11.2855 35.5354L17.8149 33.7545L20.7951 37.1167L17.1203 42.0634C16.7975 41.8931 16.4975 41.6774 16.2502 41.3987L11.7892 36.3653ZM18.5438 42.4305C18.3888 42.4305 18.2376 42.4046 18.0862 42.3816L21.6588 37.5725H23.8458H27.9684H30.1544L33.7278 42.3816C33.5762 42.4047 33.4248 42.4305 33.2694 42.4305H18.5438ZM35.563 41.3987C35.3159 41.6773 35.0161 41.8929 34.6936 42.0632L31.0182 37.1167L33.9991 33.7545L40.5285 35.5353C40.401 35.8327 40.244 36.1179 40.025 36.3653L35.563 41.3987Z" fill="black"/>
</g>
<defs>
<clipPath id="clip0">
<rect width="50.4982" height="50.5189" fill="white" transform="translate(0.379883 0.811279)"/>
</clipPath>
</defs>
</svg>
