<svg width="40" height="40" viewBox="0 0 40 40" fill="none" xmlns="http://www.w3.org/2000/svg">
<g clip-path="url(#clip0)">
<mask id="path-1-inside-1" fill="white">
<path d="M39.5619 25.1788C39.8045 24.7219 40.0353 24.0305 39.8006 23.2849C39.5658 22.5394 39.0384 22.0675 38.655 21.8063C38.5971 21.3974 38.4524 20.7973 38.0948 20.2947C37.6253 19.6356 36.9124 19.321 36.5791 19.2039C35.9531 18.728 35.3655 18.5707 34.8506 18.7493C33.4805 19.2259 33.5814 20.7705 33.6628 22.0116C33.7606 23.506 33.7583 24.4403 32.8976 24.7856C32.5572 24.9232 32.101 24.8037 31.6456 24.46C30.8803 23.8811 30.6542 22.7666 31.1205 21.8645C32.4007 19.4052 33.9899 16.3379 33.9899 13.4003C33.9899 9.74945 32.4758 6.34159 29.727 3.80516C27.0727 1.3578 23.6018 0 20 0C16.3981 0 12.9272 1.3578 10.273 3.80516C7.52415 6.34395 6.01006 9.75181 6.01006 13.4003C6.01006 16.3395 7.59927 19.4044 8.87627 21.8677C9.34576 22.7667 9.11649 23.8811 8.35123 24.4631C7.89661 24.8076 7.44043 24.9264 7.09927 24.7887C6.52493 24.5583 6.1869 24.2563 6.334 22.0148C6.41225 20.7737 6.51632 19.229 5.1462 18.7524C4.63133 18.5739 4.04056 18.7312 3.41771 19.207C3.08437 19.3242 2.37075 19.6388 1.90205 20.2979C1.54446 20.8004 1.3997 21.3989 1.3418 21.8095C0.958382 22.0706 0.429427 22.5464 0.196249 23.2881C-0.0369296 24.0298 0.196249 24.725 0.434904 25.182C0.153212 25.6358 -0.136304 26.3413 0.0718347 27.1325C0.260412 27.8537 0.74946 28.3177 1.16026 28.593C1.11718 28.9702 1.15848 29.3523 1.28113 29.7114C1.40378 30.0704 1.60469 30.3975 1.86919 30.6685C2.08846 30.9016 2.35145 31.0888 2.64299 31.2193C2.93453 31.3499 3.24888 31.4211 3.56794 31.4291C3.66273 31.7149 3.82235 31.9747 4.0342 32.1879C4.24605 32.4011 4.50432 32.5619 4.78861 32.6576C5.06063 32.7566 5.3475 32.8082 5.63682 32.8101C4.48814 33.4834 3.46075 34.1621 3.46075 35.5581C3.46075 36.5019 3.94979 37.3104 4.83634 37.8248C5.00005 37.919 5.17029 38.0013 5.34573 38.071C5.56891 38.4578 5.88997 38.7783 6.27629 39C6.66261 39.2217 7.10043 39.3367 7.54528 39.3333C8.24266 39.3376 8.92112 39.1054 9.47096 38.6742C10.1348 38.9513 10.8628 39.0352 11.5719 38.9164C12.3612 38.7898 13.085 38.3997 13.6267 37.8091C14.2269 38.0104 15.1635 38.1237 16.2237 37.533C17.1205 37.032 17.5586 36.3808 17.7691 35.9231C17.7895 35.879 17.8075 35.8358 17.8247 35.7941C18.5197 35.8041 19.1996 35.5906 19.7652 35.1845C19.8486 35.1252 19.9271 35.0592 20 34.9871C20.0728 35.0592 20.1513 35.1252 20.2347 35.1845C20.8013 35.5897 21.4816 35.8026 22.1768 35.7925C22.194 35.8342 22.212 35.8774 22.2324 35.9215C22.4429 36.3792 22.8811 37.0304 23.7778 37.5314C24.838 38.1237 25.7747 38.0088 26.3748 37.8075C26.9157 38.4 27.6397 38.7919 28.4296 38.9196C29.1384 39.0375 29.866 38.9525 30.529 38.6742C31.0792 39.1043 31.7577 39.3354 32.4547 39.3301C32.8995 39.3336 33.3373 39.2186 33.7237 38.9969C34.11 38.7752 34.431 38.4546 34.6542 38.0678C34.8297 37.9981 34.9999 37.9159 35.1636 37.8216C36.0502 37.3073 36.5392 36.5019 36.5392 35.555C36.5392 34.159 35.5118 33.4771 34.3639 32.8062C34.6535 32.8046 34.9406 32.7533 35.2129 32.6544C35.4966 32.5589 35.7543 32.3985 35.9659 32.1859C36.1774 31.9732 36.337 31.7142 36.432 31.4291C36.7509 31.4204 37.0649 31.3485 37.3561 31.2174C37.6472 31.0864 37.9097 30.8988 38.1284 30.6654C38.3929 30.3943 38.5938 30.0673 38.7165 29.7082C38.8391 29.3491 38.8804 28.967 38.8373 28.5898C39.2481 28.3146 39.7372 27.8505 39.9258 27.1293C40.1355 26.3381 39.846 25.6326 39.5619 25.1788ZM34.9719 35.5605C34.9719 35.8216 34.9038 36.1598 34.3788 36.465C34.2086 36.5619 34.029 36.6409 33.8428 36.7009H33.8342C33.0986 36.9368 32.0752 37.021 30.9108 36.9368C30.8695 36.922 30.8268 36.9112 30.7833 36.9046C30.7069 36.892 30.6289 36.892 30.5525 36.9046C29.3516 36.7823 28.1675 36.5292 27.0211 36.1496C26.9468 36.1005 26.864 36.0658 26.777 36.0473C26.745 36.0403 26.7126 36.0356 26.68 36.0332C25.7942 35.7232 24.9387 35.3317 24.1244 34.8637C23.8341 34.6953 23.5689 34.5263 23.3263 34.3564C23.2948 34.3236 23.2608 34.2933 23.2246 34.2659C23.1848 34.2368 23.142 34.212 23.097 34.192C21.1111 32.722 20.7825 31.2812 20.7825 30.4884C20.7825 30.2798 20.7 30.0798 20.5533 29.9323C20.4065 29.7848 20.2075 29.7019 20 29.7019C19.7924 29.7019 19.5934 29.7848 19.4467 29.9323C19.2999 30.0798 19.2175 30.2798 19.2175 30.4884C19.2175 31.2749 18.892 32.7063 16.9334 34.1692C16.8759 34.1915 16.8215 34.2211 16.7715 34.2573C16.7202 34.2944 16.6734 34.3374 16.6322 34.3855C16.4006 34.5459 16.1476 34.7058 15.8732 34.8652C15.0509 35.3385 14.1864 35.7335 13.291 36.045C13.2689 36.0472 13.247 36.0506 13.2253 36.0552C13.1449 36.0718 13.0678 36.1021 12.9976 36.1449C11.8451 36.5281 10.6544 36.7836 9.4467 36.907C9.36898 36.894 9.28967 36.894 9.21196 36.907C9.1685 36.9135 9.12578 36.9243 9.08441 36.9392C7.5977 37.0446 6.33635 36.8834 5.61647 36.4673C5.09143 36.1622 5.02335 35.824 5.02335 35.5629C5.02335 35.0335 5.4678 34.726 6.64386 34.0441C8.19552 33.1444 10.3215 31.912 11.694 28.7456C11.777 28.5543 11.781 28.3377 11.7051 28.1434C11.6293 27.9492 11.4797 27.7932 11.2894 27.7097C11.0991 27.6263 10.8836 27.6223 10.6904 27.6985C10.4971 27.7748 10.3419 27.9251 10.2589 28.1164C9.71118 29.3803 9.02573 30.2792 8.30272 30.9642C7.94301 30.9441 7.58509 30.8992 7.23151 30.8298C7.1968 30.8205 7.1615 30.8137 7.12587 30.8093C6.67263 30.718 6.22771 30.5891 5.79566 30.4239C5.45871 30.2939 5.13245 30.1374 4.81991 29.956C4.7958 29.929 4.76964 29.9041 4.74166 29.8812C4.67135 29.8269 4.59182 29.7859 4.50692 29.7601C3.79112 29.2962 3.20355 28.658 2.79877 27.9048C2.79329 27.8891 2.78781 27.8725 2.78077 27.856C2.7626 27.8142 2.7406 27.7742 2.71504 27.7365C2.34322 26.9774 2.15832 26.1396 2.17592 25.2936C2.17904 25.2544 2.17904 25.2149 2.17592 25.1757C2.23382 23.5366 2.96935 22.2059 3.25808 21.7442C3.88094 20.7572 4.46545 20.349 4.68141 20.2656C4.86842 20.4497 4.81208 21.3195 4.77296 21.9086C4.72523 22.6385 4.67124 23.4666 4.84025 24.2185C5.06248 25.2056 5.62664 25.8882 6.51945 26.2477C7.38018 26.5929 8.39035 26.4002 9.29255 25.7176C10.6619 24.681 11.0797 22.714 10.2644 21.1418C9.06641 18.8311 7.57501 15.9549 7.57501 13.4011C7.57501 10.1962 8.90914 7.19886 11.3309 4.96208C13.6964 2.78135 16.7894 1.5715 19.9992 1.5715C23.209 1.5715 26.302 2.78135 28.6675 4.96208C31.0932 7.19886 32.4234 10.1962 32.4234 13.4011C32.4234 15.9549 30.932 18.8279 29.734 21.1418C28.9187 22.7147 29.3365 24.681 30.7058 25.7176C31.608 26.4002 32.619 26.5929 33.4789 26.2477C34.3717 25.889 34.9359 25.2063 35.1581 24.2193C35.3271 23.4674 35.2732 22.6392 35.2254 21.9094C35.1863 21.3203 35.13 20.4504 35.317 20.2664C35.5329 20.345 36.1206 20.758 36.7387 21.745C36.9119 22.0246 37.0659 22.3157 37.1996 22.6164L37.2043 22.6267C37.5699 23.4284 37.7792 24.2931 37.8209 25.1741C37.8178 25.2139 37.8178 25.2539 37.8209 25.2936C37.8319 25.8881 37.7444 26.4803 37.5619 27.0459C37.4885 27.2716 37.4002 27.4921 37.2974 27.7058C37.2636 27.7512 37.235 27.8003 37.2121 27.8521C37.2006 27.8791 37.1904 27.9067 37.1816 27.9347C36.7782 28.6746 36.1979 29.3019 35.493 29.7601C35.4081 29.7859 35.3286 29.8269 35.2583 29.8812C35.2284 29.9038 35.2004 29.9288 35.1746 29.956C34.8619 30.1361 34.5356 30.2912 34.1988 30.42C33.3943 30.7256 32.5486 30.9078 31.6902 30.9603C30.968 30.2753 30.2817 29.3763 29.734 28.1124C29.6929 28.0177 29.6336 27.9321 29.5596 27.8604C29.4856 27.7887 29.3982 27.7324 29.3025 27.6946C29.1093 27.6183 28.8938 27.6224 28.7035 27.7058C28.5132 27.7892 28.3636 27.9453 28.2878 28.1395C28.2119 28.3338 28.2159 28.5503 28.2989 28.7416C29.6714 31.908 31.7974 33.1405 33.349 34.0402C34.5298 34.7213 34.9743 35.0288 34.9743 35.5581L34.9719 35.5605Z"/>
</mask>
<path d="M39.5619 25.1788C39.8045 24.7219 40.0353 24.0305 39.8006 23.2849C39.5658 22.5394 39.0384 22.0675 38.655 21.8063C38.5971 21.3974 38.4524 20.7973 38.0948 20.2947C37.6253 19.6356 36.9124 19.321 36.5791 19.2039C35.9531 18.728 35.3655 18.5707 34.8506 18.7493C33.4805 19.2259 33.5814 20.7705 33.6628 22.0116C33.7606 23.506 33.7583 24.4403 32.8976 24.7856C32.5572 24.9232 32.101 24.8037 31.6456 24.46C30.8803 23.8811 30.6542 22.7666 31.1205 21.8645C32.4007 19.4052 33.9899 16.3379 33.9899 13.4003C33.9899 9.74945 32.4758 6.34159 29.727 3.80516C27.0727 1.3578 23.6018 0 20 0C16.3981 0 12.9272 1.3578 10.273 3.80516C7.52415 6.34395 6.01006 9.75181 6.01006 13.4003C6.01006 16.3395 7.59927 19.4044 8.87627 21.8677C9.34576 22.7667 9.11649 23.8811 8.35123 24.4631C7.89661 24.8076 7.44043 24.9264 7.09927 24.7887C6.52493 24.5583 6.1869 24.2563 6.334 22.0148C6.41225 20.7737 6.51632 19.229 5.1462 18.7524C4.63133 18.5739 4.04056 18.7312 3.41771 19.207C3.08437 19.3242 2.37075 19.6388 1.90205 20.2979C1.54446 20.8004 1.3997 21.3989 1.3418 21.8095C0.958382 22.0706 0.429427 22.5464 0.196249 23.2881C-0.0369296 24.0298 0.196249 24.725 0.434904 25.182C0.153212 25.6358 -0.136304 26.3413 0.0718347 27.1325C0.260412 27.8537 0.74946 28.3177 1.16026 28.593C1.11718 28.9702 1.15848 29.3523 1.28113 29.7114C1.40378 30.0704 1.60469 30.3975 1.86919 30.6685C2.08846 30.9016 2.35145 31.0888 2.64299 31.2193C2.93453 31.3499 3.24888 31.4211 3.56794 31.4291C3.66273 31.7149 3.82235 31.9747 4.0342 32.1879C4.24605 32.4011 4.50432 32.5619 4.78861 32.6576C5.06063 32.7566 5.3475 32.8082 5.63682 32.8101C4.48814 33.4834 3.46075 34.1621 3.46075 35.5581C3.46075 36.5019 3.94979 37.3104 4.83634 37.8248C5.00005 37.919 5.17029 38.0013 5.34573 38.071C5.56891 38.4578 5.88997 38.7783 6.27629 39C6.66261 39.2217 7.10043 39.3367 7.54528 39.3333C8.24266 39.3376 8.92112 39.1054 9.47096 38.6742C10.1348 38.9513 10.8628 39.0352 11.5719 38.9164C12.3612 38.7898 13.085 38.3997 13.6267 37.8091C14.2269 38.0104 15.1635 38.1237 16.2237 37.533C17.1205 37.032 17.5586 36.3808 17.7691 35.9231C17.7895 35.879 17.8075 35.8358 17.8247 35.7941C18.5197 35.8041 19.1996 35.5906 19.7652 35.1845C19.8486 35.1252 19.9271 35.0592 20 34.9871C20.0728 35.0592 20.1513 35.1252 20.2347 35.1845C20.8013 35.5897 21.4816 35.8026 22.1768 35.7925C22.194 35.8342 22.212 35.8774 22.2324 35.9215C22.4429 36.3792 22.8811 37.0304 23.7778 37.5314C24.838 38.1237 25.7747 38.0088 26.3748 37.8075C26.9157 38.4 27.6397 38.7919 28.4296 38.9196C29.1384 39.0375 29.866 38.9525 30.529 38.6742C31.0792 39.1043 31.7577 39.3354 32.4547 39.3301C32.8995 39.3336 33.3373 39.2186 33.7237 38.9969C34.11 38.7752 34.431 38.4546 34.6542 38.0678C34.8297 37.9981 34.9999 37.9159 35.1636 37.8216C36.0502 37.3073 36.5392 36.5019 36.5392 35.555C36.5392 34.159 35.5118 33.4771 34.3639 32.8062C34.6535 32.8046 34.9406 32.7533 35.2129 32.6544C35.4966 32.5589 35.7543 32.3985 35.9659 32.1859C36.1774 31.9732 36.337 31.7142 36.432 31.4291C36.7509 31.4204 37.0649 31.3485 37.3561 31.2174C37.6472 31.0864 37.9097 30.8988 38.1284 30.6654C38.3929 30.3943 38.5938 30.0673 38.7165 29.7082C38.8391 29.3491 38.8804 28.967 38.8373 28.5898C39.2481 28.3146 39.7372 27.8505 39.9258 27.1293C40.1355 26.3381 39.846 25.6326 39.5619 25.1788ZM34.9719 35.5605C34.9719 35.8216 34.9038 36.1598 34.3788 36.465C34.2086 36.5619 34.029 36.6409 33.8428 36.7009H33.8342C33.0986 36.9368 32.0752 37.021 30.9108 36.9368C30.8695 36.922 30.8268 36.9112 30.7833 36.9046C30.7069 36.892 30.6289 36.892 30.5525 36.9046C29.3516 36.7823 28.1675 36.5292 27.0211 36.1496C26.9468 36.1005 26.864 36.0658 26.777 36.0473C26.745 36.0403 26.7126 36.0356 26.68 36.0332C25.7942 35.7232 24.9387 35.3317 24.1244 34.8637C23.8341 34.6953 23.5689 34.5263 23.3263 34.3564C23.2948 34.3236 23.2608 34.2933 23.2246 34.2659C23.1848 34.2368 23.142 34.212 23.097 34.192C21.1111 32.722 20.7825 31.2812 20.7825 30.4884C20.7825 30.2798 20.7 30.0798 20.5533 29.9323C20.4065 29.7848 20.2075 29.7019 20 29.7019C19.7924 29.7019 19.5934 29.7848 19.4467 29.9323C19.2999 30.0798 19.2175 30.2798 19.2175 30.4884C19.2175 31.2749 18.892 32.7063 16.9334 34.1692C16.8759 34.1915 16.8215 34.2211 16.7715 34.2573C16.7202 34.2944 16.6734 34.3374 16.6322 34.3855C16.4006 34.5459 16.1476 34.7058 15.8732 34.8652C15.0509 35.3385 14.1864 35.7335 13.291 36.045C13.2689 36.0472 13.247 36.0506 13.2253 36.0552C13.1449 36.0718 13.0678 36.1021 12.9976 36.1449C11.8451 36.5281 10.6544 36.7836 9.4467 36.907C9.36898 36.894 9.28967 36.894 9.21196 36.907C9.1685 36.9135 9.12578 36.9243 9.08441 36.9392C7.5977 37.0446 6.33635 36.8834 5.61647 36.4673C5.09143 36.1622 5.02335 35.824 5.02335 35.5629C5.02335 35.0335 5.4678 34.726 6.64386 34.0441C8.19552 33.1444 10.3215 31.912 11.694 28.7456C11.777 28.5543 11.781 28.3377 11.7051 28.1434C11.6293 27.9492 11.4797 27.7932 11.2894 27.7097C11.0991 27.6263 10.8836 27.6223 10.6904 27.6985C10.4971 27.7748 10.3419 27.9251 10.2589 28.1164C9.71118 29.3803 9.02573 30.2792 8.30272 30.9642C7.94301 30.9441 7.58509 30.8992 7.23151 30.8298C7.1968 30.8205 7.1615 30.8137 7.12587 30.8093C6.67263 30.718 6.22771 30.5891 5.79566 30.4239C5.45871 30.2939 5.13245 30.1374 4.81991 29.956C4.7958 29.929 4.76964 29.9041 4.74166 29.8812C4.67135 29.8269 4.59182 29.7859 4.50692 29.7601C3.79112 29.2962 3.20355 28.658 2.79877 27.9048C2.79329 27.8891 2.78781 27.8725 2.78077 27.856C2.7626 27.8142 2.7406 27.7742 2.71504 27.7365C2.34322 26.9774 2.15832 26.1396 2.17592 25.2936C2.17904 25.2544 2.17904 25.2149 2.17592 25.1757C2.23382 23.5366 2.96935 22.2059 3.25808 21.7442C3.88094 20.7572 4.46545 20.349 4.68141 20.2656C4.86842 20.4497 4.81208 21.3195 4.77296 21.9086C4.72523 22.6385 4.67124 23.4666 4.84025 24.2185C5.06248 25.2056 5.62664 25.8882 6.51945 26.2477C7.38018 26.5929 8.39035 26.4002 9.29255 25.7176C10.6619 24.681 11.0797 22.714 10.2644 21.1418C9.06641 18.8311 7.57501 15.9549 7.57501 13.4011C7.57501 10.1962 8.90914 7.19886 11.3309 4.96208C13.6964 2.78135 16.7894 1.5715 19.9992 1.5715C23.209 1.5715 26.302 2.78135 28.6675 4.96208C31.0932 7.19886 32.4234 10.1962 32.4234 13.4011C32.4234 15.9549 30.932 18.8279 29.734 21.1418C28.9187 22.7147 29.3365 24.681 30.7058 25.7176C31.608 26.4002 32.619 26.5929 33.4789 26.2477C34.3717 25.889 34.9359 25.2063 35.1581 24.2193C35.3271 23.4674 35.2732 22.6392 35.2254 21.9094C35.1863 21.3203 35.13 20.4504 35.317 20.2664C35.5329 20.345 36.1206 20.758 36.7387 21.745C36.9119 22.0246 37.0659 22.3157 37.1996 22.6164L37.2043 22.6267C37.5699 23.4284 37.7792 24.2931 37.8209 25.1741C37.8178 25.2139 37.8178 25.2539 37.8209 25.2936C37.8319 25.8881 37.7444 26.4803 37.5619 27.0459C37.4885 27.2716 37.4002 27.4921 37.2974 27.7058C37.2636 27.7512 37.235 27.8003 37.2121 27.8521C37.2006 27.8791 37.1904 27.9067 37.1816 27.9347C36.7782 28.6746 36.1979 29.3019 35.493 29.7601C35.4081 29.7859 35.3286 29.8269 35.2583 29.8812C35.2284 29.9038 35.2004 29.9288 35.1746 29.956C34.8619 30.1361 34.5356 30.2912 34.1988 30.42C33.3943 30.7256 32.5486 30.9078 31.6902 30.9603C30.968 30.2753 30.2817 29.3763 29.734 28.1124C29.6929 28.0177 29.6336 27.9321 29.5596 27.8604C29.4856 27.7887 29.3982 27.7324 29.3025 27.6946C29.1093 27.6183 28.8938 27.6224 28.7035 27.7058C28.5132 27.7892 28.3636 27.9453 28.2878 28.1395C28.2119 28.3338 28.2159 28.5503 28.2989 28.7416C29.6714 31.908 31.7974 33.1405 33.349 34.0402C34.5298 34.7213 34.9743 35.0288 34.9743 35.5581L34.9719 35.5605Z" fill="black" stroke="black" stroke-width="2" mask="url(#path-1-inside-1)"/>
<path d="M19.9082 21.8179C15.6116 21.8179 14.5193 18.5516 14.4755 18.4124C14.4362 18.3123 14.4178 18.2052 14.4213 18.0977C14.4249 17.9902 14.4503 17.8846 14.4961 17.7874C14.5419 17.6901 14.607 17.6034 14.6874 17.5325C14.7679 17.4615 14.862 17.4079 14.9638 17.375C15.0657 17.3421 15.1732 17.3305 15.2797 17.341C15.3862 17.3515 15.4894 17.3838 15.583 17.436C15.6766 17.4882 15.7585 17.5591 15.8237 17.6444C15.889 17.7297 15.9361 17.8275 15.9622 17.9318C15.97 17.9546 16.7369 20.2449 19.9051 20.2449C23.0303 20.2449 23.8175 18.0207 23.848 17.9318C23.8986 17.7731 23.9979 17.6347 24.1318 17.5365C24.2657 17.4382 24.4272 17.3853 24.5929 17.3852C24.6742 17.3855 24.7549 17.3982 24.8324 17.423C24.9303 17.4545 25.021 17.5051 25.0994 17.5719C25.1779 17.6387 25.2424 17.7203 25.2894 17.8122C25.3365 17.9041 25.365 18.0044 25.3734 18.1074C25.3819 18.2104 25.3701 18.314 25.3386 18.4124C25.2972 18.5547 24.2056 21.8179 19.9082 21.8179Z" fill="black"/>
<path d="M17.8413 12.9183C17.8413 12.7097 17.7589 12.5097 17.6121 12.3622C17.4654 12.2147 17.2664 12.1318 17.0589 12.1318C16.8513 12.1318 16.6523 12.2147 16.5056 12.3622C16.3588 12.5097 16.2764 12.7097 16.2764 12.9183C16.2836 13.0416 16.2657 13.165 16.2238 13.2811C16.1818 13.3971 16.1167 13.5034 16.0324 13.5932C15.9482 13.683 15.8465 13.7546 15.7337 13.8036C15.6209 13.8525 15.4994 13.8777 15.3765 13.8777C15.2537 13.8777 15.1321 13.8525 15.0193 13.8036C14.9065 13.7546 14.8049 13.683 14.7206 13.5932C14.6364 13.5034 14.5712 13.3971 14.5293 13.2811C14.4873 13.165 14.4694 13.0416 14.4767 12.9183C14.4767 12.7097 14.3942 12.5097 14.2475 12.3622C14.1008 12.2147 13.9017 12.1318 13.6942 12.1318C13.4867 12.1318 13.2876 12.2147 13.1409 12.3622C12.9942 12.5097 12.9117 12.7097 12.9117 12.9183C12.8999 13.2511 12.9549 13.5828 13.0735 13.8938C13.192 14.2047 13.3717 14.4884 13.6018 14.7281C13.8318 14.9677 14.1075 15.1582 14.4124 15.2884C14.7174 15.4186 15.0452 15.4856 15.3765 15.4856C15.7078 15.4856 16.0357 15.4186 16.3406 15.2884C16.6455 15.1582 16.9213 14.9677 17.1513 14.7281C17.3813 14.4884 17.561 14.2047 17.6796 13.8938C17.7981 13.5828 17.8531 13.2511 17.8413 12.9183V12.9183Z" fill="black"/>
<path d="M26.4069 12.1318C26.1994 12.1318 26.0003 12.2147 25.8536 12.3622C25.7069 12.5097 25.6244 12.7097 25.6244 12.9183C25.6109 13.149 25.5102 13.3657 25.3429 13.5242C25.1756 13.6827 24.9544 13.771 24.7246 13.771C24.4947 13.771 24.2735 13.6827 24.1062 13.5242C23.939 13.3657 23.8383 13.149 23.8247 12.9183C23.8247 12.7097 23.7423 12.5097 23.5955 12.3622C23.4488 12.2147 23.2498 12.1318 23.0422 12.1318C22.8347 12.1318 22.6357 12.2147 22.4889 12.3622C22.3422 12.5097 22.2598 12.7097 22.2598 12.9183C22.2825 13.5601 22.5522 14.168 23.0119 14.6139C23.4717 15.0598 24.0857 15.309 24.7246 15.309C25.3635 15.309 25.9775 15.0598 26.4372 14.6139C26.897 14.168 27.1666 13.5601 27.1894 12.9183C27.1894 12.7097 27.1069 12.5097 26.9602 12.3622C26.8134 12.2147 26.6144 12.1318 26.4069 12.1318V12.1318Z" fill="black"/>
</g>
<defs>
<clipPath id="clip0">
<rect width="40" height="40" fill="white"/>
</clipPath>
</defs>
</svg>
