<svg width="51" height="51" viewBox="0 0 51 51" fill="none" xmlns="http://www.w3.org/2000/svg">
<g clip-path="url(#clip0)">
<path d="M46.3398 9.41742L44.9196 8.8524C44.7788 8.79663 44.6197 8.86522 44.5637 9.00585L43.9988 10.4266C43.972 10.4942 43.9731 10.5696 44.0018 10.6364C44.0306 10.7033 44.0847 10.7559 44.1523 10.7827L45.5725 11.3477C45.6057 11.3609 45.64 11.3672 45.6736 11.3672C45.7826 11.3672 45.8857 11.3018 45.9284 11.1943L46.4933 9.77353C46.5201 9.70596 46.519 9.6305 46.4903 9.5637C46.4615 9.49694 46.4074 9.44428 46.3398 9.41742Z" fill="black"/>
<path d="M40.8146 28.867C38.9455 28.0782 36.9759 27.8493 35.3909 28.1628C35.2973 28.0878 35.1988 28.0127 35.0954 27.9376C33.6851 26.9141 32.2323 26.5282 30.7771 26.7904C29.8482 26.9579 29.0474 27.3711 28.3986 27.8362C27.9876 27.3053 27.5486 26.7715 27.0898 26.2426C28.6579 25.1995 30.8399 24.2379 33.5623 24.2379C33.9544 24.2379 34.2723 23.9199 34.2723 23.5276C34.2723 23.1354 33.9544 22.8173 33.5623 22.8173C30.384 22.8173 27.8845 23.9569 26.1237 25.1673C25.76 24.776 25.3885 24.3905 25.0127 24.0146C20.867 19.8672 15.5776 16.2311 13.761 18.0485C13.5981 18.2115 13.4769 18.4031 13.3955 18.6215L3.81257 40.2679C3.17348 41.7027 3.47813 43.3474 4.58868 44.4578C5.31311 45.1822 6.26453 45.5634 7.23624 45.5634C7.75409 45.5633 8.27783 45.455 8.77579 45.2327L30.444 35.6201C30.6454 35.539 30.8236 35.4235 30.9762 35.2708C32.1032 34.1433 31.1317 31.6785 29.242 28.9794C29.7442 28.6215 30.3516 28.3088 31.0373 28.1869C31.9329 28.028 32.8484 28.2209 33.7653 28.7612C33.576 28.8741 33.4003 29.0001 33.2403 29.1388C32.3382 29.9212 32.019 31.0287 32.3416 32.2573C32.6157 33.3011 33.3548 33.9461 34.3189 33.9827C34.3467 33.9837 34.3745 33.9843 34.4023 33.9843C35.4947 33.9842 36.5875 33.1764 36.9684 32.0736C37.1304 31.6049 37.3161 30.6079 36.5878 29.457C37.6589 29.4142 38.9389 29.6172 40.2627 30.1758C40.6238 30.328 41.0403 30.1588 41.1928 29.7973C41.3452 29.436 41.1758 29.0194 40.8146 28.867ZM8.19865 43.9348C7.11596 44.4183 6.14237 44.003 5.59248 43.4531C5.04255 42.9033 4.62688 41.9296 5.11019 40.8446L6.59781 37.4843C6.65869 37.5883 6.72221 37.6935 6.79123 37.8014C6.82576 37.8617 6.86986 37.918 6.92331 37.9679C7.06002 38.0955 7.23385 38.1587 7.40733 38.1587C7.59749 38.1587 7.78735 38.0827 7.92726 37.9328C8.14921 37.6949 8.18115 37.3367 8.00492 37.0632C7.55945 36.372 7.41689 35.9469 7.37071 35.7386L7.6928 35.011C7.70994 35.0533 7.72551 35.0949 7.74366 35.1375C7.85871 35.4076 8.12109 35.5697 8.3972 35.5697C8.48997 35.5697 8.58431 35.5513 8.67509 35.5126C9.03583 35.3589 9.20367 34.9417 9.05002 34.5808C8.78322 33.9542 8.64844 33.3771 8.66029 32.912C8.66095 32.8868 8.65668 32.8628 8.65475 32.8382L10.4884 28.6963C10.5623 28.8581 10.6407 29.022 10.7275 29.1901C10.8536 29.4344 11.1017 29.5745 11.3588 29.5745C11.4685 29.5745 11.58 29.5489 11.6842 29.4951C12.0325 29.315 12.1689 28.8865 11.989 28.538C11.6494 27.8806 11.4255 27.279 11.3341 26.786L11.6002 26.1848C11.6702 26.3627 11.7465 26.5437 11.8312 26.729C11.9506 26.9898 12.208 27.1437 12.4772 27.1437C12.576 27.1437 12.6766 27.1229 12.7723 27.079C13.1288 26.9158 13.2855 26.4943 13.1222 26.1376C12.8059 25.4464 12.6147 24.8344 12.5543 24.3186C12.5468 24.2549 12.5286 24.1957 12.5059 24.139L13.7561 21.315C13.9496 21.7718 14.1988 22.2653 14.5089 22.7983C15.6652 24.786 17.5175 27.0967 19.7247 29.3048C19.7636 29.3437 19.8028 29.3817 19.8417 29.4204C19.8536 29.4322 19.8651 29.4442 19.8769 29.456L19.8823 29.4614C19.8841 29.4632 19.8863 29.4644 19.8881 29.4662C22.0455 31.6025 24.2904 33.3943 26.2284 34.5225C26.761 34.8326 27.2557 35.0844 27.7122 35.278L24.9537 36.5017C24.8997 36.4834 24.8439 36.4691 24.7845 36.4641C23.2545 36.3353 20.3336 34.8277 17.2569 31.7498C16.1264 30.6188 15.1106 29.4012 14.3192 28.2285C14.0997 27.9033 13.6585 27.8178 13.3335 28.0373C13.0085 28.2569 12.9229 28.6983 13.1423 29.0234C13.9837 30.2701 15.0593 31.5602 16.2529 32.7543C18.4941 34.9963 20.8768 36.6637 22.8632 37.4292L22.2745 37.6903C20.8888 37.4556 18.3623 36.0498 15.6635 33.3499C14.7084 32.3945 13.8621 31.4049 13.148 30.4088C12.9195 30.09 12.4759 30.0169 12.1573 30.2455C11.8387 30.4741 11.7656 30.9179 11.9941 31.2366C12.7532 32.2954 13.65 33.3444 14.6595 34.3543C16.5916 36.2873 18.6241 37.7695 20.3474 38.5452L16.2277 40.3728C16.2133 40.3729 16.1996 40.3703 16.185 40.3712C15.1172 40.4342 13.1853 39.6498 11.2849 37.7484C10.8227 37.2861 10.4041 36.7967 10.041 36.2939C9.81133 35.9759 9.36733 35.9044 9.04972 36.1341C8.7319 36.3638 8.66039 36.8079 8.89002 37.1258C9.29735 37.6897 9.7653 38.2372 10.2808 38.7529C11.4788 39.9514 12.794 40.8497 14.0272 41.349L13.3009 41.6712C12.6182 41.5168 11.2666 40.7113 9.79882 39.243C9.56197 39.0061 9.33438 38.7641 9.12235 38.5239C8.86281 38.2299 8.41414 38.202 8.12022 38.4617C7.82631 38.7213 7.79844 39.1702 8.05797 39.4642C8.28938 39.7263 8.53726 39.9899 8.79476 40.2475C9.72609 41.1792 10.6924 41.94 11.5581 42.4443L8.19865 43.9348ZM29.9722 34.2664C29.8424 34.3964 29.0069 34.4968 26.9426 33.2949C25.0956 32.2197 22.9388 30.493 20.8546 28.4247C19.6444 27.2069 18.775 25.8989 18.4053 24.7379C18.1774 24.0219 18.0344 23.0397 18.6474 22.4264C19.2711 21.8022 20.4997 21.9649 21.6367 22.8211C22.4251 23.4949 23.2225 24.2328 24.0085 25.0192C24.3445 25.3552 24.6705 25.6935 24.9876 26.0321C23.7964 27.0367 23.1499 27.9086 23.0874 27.9945C22.8568 28.3118 22.9269 28.756 23.244 28.9867C23.3702 29.0784 23.5162 29.1226 23.6611 29.1226C23.8804 29.1226 24.0969 29.0212 24.2358 28.8301C24.2497 28.811 24.8405 28.0164 25.9481 27.0939C26.4398 27.6578 26.8991 28.218 27.3212 28.7678C26.831 29.2727 26.5541 29.6827 26.5271 29.7233C26.3104 30.0493 26.3989 30.4886 26.7243 30.7063C27.0499 30.9239 27.4903 30.8363 27.7086 30.511C27.7132 30.5042 27.8776 30.2633 28.1733 29.9374C28.4796 30.3829 28.7579 30.8176 29.0011 31.2357C30.2024 33.3008 30.102 34.1364 29.9722 34.2664ZM35.6265 31.6096C35.4155 32.2201 34.811 32.579 34.3728 32.5633C34.2522 32.5587 33.8852 32.5447 33.715 31.8963C33.5295 31.1898 33.6785 30.6388 34.1705 30.2121C34.3848 30.0262 34.6701 29.8666 35.0129 29.7422C35.6039 30.3782 35.8258 31.0326 35.6265 31.6096Z" fill="black"/>
<path d="M22.1843 20.1232C22.0189 20.4789 22.1731 20.9013 22.5286 21.0666C22.6256 21.1117 22.7273 21.133 22.8275 21.133C23.0952 21.133 23.3515 20.9808 23.4718 20.7221C26.2529 14.7385 23.4018 10.8035 23.2791 10.6389C23.0447 10.3244 22.5998 10.2598 22.2855 10.4943C21.9712 10.7288 21.9065 11.1739 22.1409 11.4883C22.166 11.5218 24.6119 14.8999 22.1843 20.1232Z" fill="black"/>
<path d="M15.1257 14.4847C15.9246 14.9018 16.3646 15.1315 16.3646 16.701C16.3646 17.0932 16.6825 17.4112 17.0746 17.4112C17.4667 17.4112 17.7846 17.0932 17.7846 16.701C17.7846 14.2704 16.6745 13.6909 15.7825 13.2253C15.2941 12.9704 14.8723 12.7501 14.542 12.2252C14.2723 11.7968 14.2396 11.4102 14.442 11.0436C14.477 10.98 14.5186 10.9183 14.5659 10.8584C15.0181 11.5771 15.6909 11.9927 16.4667 11.9927C17.09 11.9927 17.6307 11.8275 18.0304 11.5151C18.4423 11.1932 18.6784 10.7297 18.6784 10.2433C18.6784 9.40806 17.9649 8.56254 16.6013 8.56254C16.1888 8.56254 15.7822 8.62151 15.3984 8.7308C15.3793 7.89983 15.6831 7.04627 16.4082 6.67256C16.7568 6.4929 16.8938 6.0646 16.7142 5.71592C16.5347 5.36709 16.1063 5.23027 15.758 5.40978C14.2283 6.19806 13.8046 7.9647 14.0383 9.40338C13.688 9.67146 13.3991 9.99414 13.1989 10.357C12.7437 11.1817 12.794 12.1139 13.3404 12.9821C13.8751 13.832 14.5685 14.1939 15.1257 14.4847ZM16.6012 9.9831C17.0657 9.9831 17.2584 10.1526 17.2584 10.2434C17.2584 10.358 17.0261 10.5722 16.4666 10.5722C16.1785 10.5722 15.9465 10.3746 15.7751 10.1058C16.041 10.0271 16.3226 9.9831 16.6012 9.9831Z" fill="black"/>
<path d="M28.7339 15.7405C28.0192 16.0253 27.5168 16.6621 27.4541 17.3628C27.4007 17.9591 27.64 18.5795 28.1278 19.1097C28.2778 19.2726 28.4454 19.4221 28.6281 19.5569C27.9717 19.8897 27.259 20.1789 26.6713 20.3694C26.2983 20.4901 26.0937 20.8903 26.2143 21.2634C26.3114 21.5642 26.5899 21.7557 26.8897 21.7557C26.9621 21.7557 27.0356 21.7445 27.1081 21.7211C27.5455 21.5798 29.017 21.0722 30.2367 20.2791C30.6506 20.3763 31.0897 20.4242 31.5497 20.4225C34.4763 20.4034 35.5847 17.9274 35.6304 17.8219C35.7866 17.4622 35.6216 17.0438 35.262 16.8875C34.9026 16.7315 34.4842 16.8961 34.3279 17.2561C34.3206 17.273 33.5786 18.9307 31.6425 18.9998C31.8092 18.7554 31.929 18.4974 31.9853 18.2266C32.0875 17.7361 32.0344 16.997 31.2014 16.2614C30.4665 15.6123 29.5439 15.4175 28.7339 15.7405ZM30.2617 17.3263C30.6507 17.6699 30.6089 17.8707 30.5953 17.9368C30.5447 18.1803 30.322 18.4448 29.9951 18.7096C29.6658 18.5677 29.3842 18.3777 29.1726 18.1477C28.9653 17.9225 28.8517 17.6764 28.8683 17.4895C28.8807 17.352 29.0219 17.1548 29.2594 17.0602C29.3489 17.0245 29.4419 17.0069 29.5372 17.0069C29.7735 17.0069 30.0229 17.1155 30.2617 17.3263Z" fill="black"/>
<path d="M27.5239 10.3625C27.5257 10.8861 27.4151 11.4618 27.1337 12.0613C26.9849 12.3781 26.8306 12.6557 26.675 12.8863C26.4557 13.2114 26.5414 13.6529 26.8664 13.8723C26.9882 13.9545 27.1263 13.9939 27.2629 13.9939C27.491 13.9939 27.7149 13.8842 27.852 13.6809C28.0484 13.3898 28.2391 13.0481 28.4189 12.6652C28.9128 11.6131 29.0287 10.6025 28.9123 9.71269C29.5028 9.30611 29.8992 8.78617 30.0953 8.15923C30.5801 6.60791 29.5727 5.03867 29.5295 4.97258C29.3157 4.64527 28.8786 4.55348 28.55 4.76616C28.2219 4.97873 28.128 5.41803 28.3393 5.74722C28.3462 5.75796 29.026 6.83305 28.7384 7.74054C28.6834 7.91394 28.5923 8.07457 28.4658 8.22191C28.1495 7.57518 27.7155 7.06888 27.2737 6.76268C26.4864 6.21715 25.6047 6.24763 25.0272 6.84053C24.1931 7.69678 23.9815 8.96323 24.5349 9.78636C24.8003 10.1809 25.6006 10.9722 27.5239 10.3625ZM26.0441 7.83182C26.0703 7.8049 26.1049 7.79417 26.1433 7.79417C26.2537 7.79417 26.3963 7.88265 26.4651 7.93032C26.7281 8.11262 27.0226 8.47473 27.2341 8.96221C26.375 9.26388 25.855 9.20455 25.713 8.9934C25.5588 8.76399 25.6676 8.21835 26.0441 7.83182Z" fill="black"/>
<path d="M32.1302 12.8212C31.8748 13.1189 31.9091 13.5673 32.2066 13.8227C32.3405 13.9377 32.505 13.994 32.6686 13.994C32.8686 13.994 33.0674 13.91 33.2078 13.7463C33.2326 13.7173 35.746 10.8329 39.8133 10.0189C40.1978 9.94198 40.4471 9.56781 40.3702 9.1831C40.2933 8.7985 39.9193 8.54899 39.5347 8.62602C34.9924 9.53499 32.2449 12.6874 32.1302 12.8212Z" fill="black"/>
<path d="M8.10659 12.1507C7.94822 12.0487 7.75612 12.0138 7.57191 12.0537C7.3879 12.0936 7.22724 12.2049 7.12532 12.3633L6.30456 13.6384C6.09227 13.9682 6.18738 14.4077 6.51705 14.6201L7.79167 15.4412C7.90717 15.5157 8.04078 15.5544 8.17606 15.5544C8.22621 15.5544 8.27661 15.549 8.3264 15.5383C8.51041 15.4984 8.67107 15.387 8.773 15.2286L9.59376 13.9535C9.80604 13.6237 9.71094 13.1842 9.38127 12.9718L8.10659 12.1507Z" fill="black"/>
<path d="M19.1505 8.17962C19.2705 8.4389 19.5271 8.59144 19.7951 8.59144C19.8949 8.59144 19.9965 8.57027 20.0931 8.5255L21.0889 8.06392C21.4447 7.89907 21.5995 7.47677 21.4346 7.12086L20.9732 6.12463C20.8083 5.76873 20.3864 5.6135 20.0305 5.77881L19.0347 6.24039C18.679 6.40524 18.5241 6.82754 18.689 7.18344L19.1505 8.17962Z" fill="black"/>
<path d="M17.0221 2.00695C17.0546 2.29086 17.2502 2.51636 17.5046 2.60067C17.5994 2.63206 17.7024 2.64397 17.8082 2.63181L18.8987 2.5069C19.2882 2.46227 19.5679 2.11014 19.5233 1.72045L19.3984 0.629586C19.3537 0.239898 19.002 -0.0401955 18.6123 0.00473129L17.5218 0.129641C17.1323 0.174263 16.8526 0.526402 16.8973 0.91609L17.0221 2.00695Z" fill="black"/>
<path d="M38.0512 13.8938L37.5889 15.694C37.4914 16.074 37.7202 16.4611 38.0999 16.5587L39.8993 17.0211C39.9586 17.0364 40.018 17.0436 40.0765 17.0436C40.3927 17.0436 40.6813 16.8305 40.7636 16.5099L41.2259 14.7098C41.3234 14.3298 41.0946 13.9427 40.7149 13.8451L38.9154 13.3827C38.5355 13.2849 38.1487 13.514 38.0512 13.8938Z" fill="black"/>
<path d="M32.1501 7.77059C32.2826 7.99482 32.5191 8.11947 32.7619 8.11947C32.8846 8.11947 33.0091 8.08757 33.1224 8.02051L33.7789 7.6323C33.941 7.53644 34.0584 7.38009 34.1052 7.19763C34.1521 7.01518 34.1246 6.82158 34.0288 6.65938L33.6407 6.00267C33.441 5.66509 33.0056 5.55315 32.6681 5.75275L32.0117 6.14102C31.8497 6.23692 31.7323 6.39328 31.6854 6.57578C31.6385 6.75819 31.6661 6.95178 31.762 7.11394L32.1501 7.77059Z" fill="black"/>
<path d="M40.1544 20.564L38.8528 20.4721C38.4623 20.4456 38.1222 20.7393 38.0946 21.1307L38.0028 22.4327C37.9752 22.824 38.2699 23.1636 38.661 23.1912L39.9626 23.2831C39.9796 23.2843 39.9965 23.2849 40.0133 23.2849C40.3827 23.2849 40.6944 22.9989 40.7208 22.6246L40.8126 21.3225C40.8402 20.9313 40.5455 20.5917 40.1544 20.564Z" fill="black"/>
<path d="M40.8282 34.8513L39.632 34.3157C39.2743 34.1556 38.8542 34.3159 38.6939 34.6739L38.1586 35.8706C38.0817 36.0425 38.0762 36.238 38.1433 36.4139C38.2105 36.59 38.3447 36.732 38.5166 36.809L39.7128 37.3446C39.8071 37.3868 39.9055 37.4067 40.0024 37.4067C40.2738 37.4067 40.5328 37.2502 40.6509 36.9864L41.1862 35.7898C41.2631 35.6178 41.2686 35.4224 41.2015 35.2464C41.1343 35.0703 41.0001 34.9283 40.8282 34.8513Z" fill="black"/>
<path d="M35.0027 37.8599C34.8066 37.5202 34.3723 37.4037 34.0329 37.6L33.0455 38.1702C32.706 38.3664 32.5896 38.8007 32.7857 39.1405L33.3558 40.1283C33.4499 40.2914 33.6049 40.4105 33.7869 40.4592C33.8474 40.4754 33.9091 40.4834 33.9707 40.4834C34.0942 40.4834 34.2168 40.4512 34.3257 40.3883L35.3131 39.8179C35.4761 39.7237 35.5951 39.5686 35.6439 39.3866C35.6926 39.2047 35.6671 39.0108 35.5729 38.8477L35.0027 37.8599Z" fill="black"/>
<path d="M48.6336 22.7869C48.4374 22.4472 48.0032 22.3307 47.6638 22.527L46.6764 23.0973C46.3368 23.2934 46.2204 23.7278 46.4166 24.0675L46.9866 25.0553C47.0808 25.2185 47.2358 25.3375 47.4178 25.3863C47.4782 25.4025 47.5399 25.4105 47.6015 25.4105C47.7251 25.4105 47.8476 25.3782 47.9565 25.3153L48.9439 24.745C49.107 24.6508 49.226 24.4956 49.2747 24.3137C49.3235 24.1317 49.298 23.9378 49.2038 23.7748L48.6336 22.7869Z" fill="black"/>
<path d="M8.54854 11.0383C9.30135 10.9367 9.94309 10.5393 10.384 9.9579C10.9641 11.1879 10.4113 12.8056 10.4017 12.8331C10.2708 13.202 10.463 13.6075 10.8317 13.7394C10.9107 13.7677 10.9914 13.7811 11.0708 13.7811C11.3623 13.7811 11.6355 13.6001 11.7393 13.3098C11.7742 13.212 12.5833 10.8935 11.519 9.06792C11.3722 8.81627 11.199 8.58746 10.9999 8.3818C11.0155 8.24036 11.0227 8.09581 11.0207 7.94866C11.0005 6.39642 9.93424 4.71673 7.59752 4.46325C7.20871 4.42061 6.85738 4.70274 6.81516 5.09278C6.77285 5.48272 7.05466 5.83324 7.44444 5.87547C8.71317 6.01315 9.33105 6.70521 9.52838 7.43981C9.19856 7.3147 8.83823 7.21813 8.44804 7.15056C7.58715 7.00143 6.7998 7.31918 6.341 8.00005C5.89914 8.65579 5.86853 9.52502 6.26467 10.1631C6.69539 10.857 7.5282 11.1763 8.54854 11.0383ZM7.51839 8.79408C7.60236 8.66943 7.75722 8.53475 8.0345 8.53475C8.08714 8.53475 8.14421 8.53958 8.2059 8.55027C8.65478 8.62796 9.04288 8.75322 9.36848 8.92489C9.16901 9.28482 8.83741 9.56593 8.35888 9.63049C7.91687 9.68992 7.59351 9.61096 7.47089 9.41344C7.368 9.24798 7.38804 8.98753 7.51839 8.79408Z" fill="black"/>
<path d="M46.6955 36.7656C47.2821 36.2828 47.6186 35.6069 47.6876 34.8804C48.828 35.6206 49.2093 37.2871 49.2156 37.3155C49.2984 37.6982 49.6752 37.9416 50.0581 37.8596C50.1401 37.8421 50.2158 37.811 50.2833 37.7692C50.5311 37.6157 50.6682 37.3179 50.6037 37.0164C50.5819 36.9148 50.0497 34.5176 48.1842 33.526C47.927 33.3893 47.6593 33.286 47.3818 33.216C47.3206 33.0875 47.2506 32.9609 47.1716 32.8367C46.3376 31.5276 44.547 30.6611 42.427 31.6763C42.074 31.8448 41.9237 32.2697 42.0931 32.6235C42.2624 32.9774 42.6863 33.1269 43.04 32.9576C44.1911 32.4064 45.0806 32.6694 45.635 33.1901C45.2887 33.2574 44.9315 33.3651 44.5642 33.5131C43.7538 33.8397 43.2516 34.5246 43.2198 35.345C43.1892 36.1353 43.6206 36.8904 44.2932 37.2243C45.0246 37.5874 45.9007 37.4203 46.6955 36.7656ZM44.6387 35.4001C44.6445 35.2499 44.7054 35.0539 44.9411 34.9078C44.9858 34.8801 45.0369 34.8542 45.095 34.8307C45.5175 34.6604 45.9134 34.5625 46.2806 34.537C46.3003 34.948 46.1663 35.3617 45.7935 35.6686C45.449 35.9519 45.1325 36.0551 44.9243 35.9518C44.7498 35.8652 44.6297 35.6332 44.6387 35.4001Z" fill="black"/>
<path d="M44.3499 25.9869C40.6634 24.7423 37.1771 25.0695 37.0306 25.0841C36.6404 25.1229 36.3554 25.4707 36.3941 25.861C36.4328 26.2513 36.7794 26.5369 37.1707 26.4977C37.2035 26.4943 40.496 26.185 43.8959 27.3328C43.9712 27.3582 44.0477 27.3703 44.123 27.3703C44.4193 27.3703 44.6957 27.1833 44.7956 26.8869C44.9209 26.5153 44.7214 26.1123 44.3499 25.9869Z" fill="black"/>
</g>
<defs>
<clipPath id="clip0">
<rect width="50.4982" height="50.5189" fill="white"/>
</clipPath>
</defs>
</svg>
