<svg width="51" height="50" viewBox="0 0 51 50" fill="none" xmlns="http://www.w3.org/2000/svg">
<g clip-path="url(#clip0)">
<path d="M40.0477 16.7007H33.5127C32.6032 16.7007 31.8639 15.9698 31.8639 15.0706V8.6098C31.8639 6.71044 30.3003 5.16455 28.3791 5.16455H20.3771C18.456 5.16455 16.8928 6.71044 16.8928 8.6098V15.0706C16.8928 15.9698 16.1526 16.7007 15.2431 16.7007H8.70846C6.78683 16.7007 5.22363 18.2466 5.22363 20.1459V28.057C5.22363 29.9563 6.78683 31.5022 8.70846 31.5022H15.2431C16.1526 31.5022 16.8928 32.2331 16.8928 33.1323V39.5931C16.8928 41.4924 18.456 43.0383 20.3771 43.0383H28.3791C30.3003 43.0383 31.8639 41.4924 31.8639 39.5931V33.1323C31.8639 32.2331 32.6032 31.5022 33.5127 31.5022H40.0477C41.9689 31.5022 43.5326 29.9563 43.5326 28.057V20.1459C43.5326 18.2466 41.9689 16.7007 40.0477 16.7007ZM41.6974 20.1459V28.057C41.6974 28.4311 41.5641 28.772 41.349 29.0476L38.0361 26.5021V24.2467V23.9562V21.7008L41.3488 19.1552C41.5641 19.4307 41.6974 19.7717 41.6974 20.1459ZM30.0287 39.5931C30.0287 39.7741 29.9917 39.9453 29.9363 40.1082L27.4893 36.9956V34.6737V27.8187L30.7569 31.0492C30.3069 31.6294 30.0287 32.3462 30.0287 33.1323V39.5931ZM27.0305 26.2701C26.7769 26.2701 26.5717 26.473 26.5717 26.7237V34.6737C26.5717 35.7891 25.6532 36.6971 24.5246 36.6971H24.2316C23.103 36.6971 22.1845 35.7891 22.1845 34.6737V26.7237C22.1845 26.473 21.9793 26.2701 21.7257 26.2701H13.6844C12.5558 26.2701 11.6373 25.3621 11.6373 24.2467V23.9562C11.6373 22.8408 12.5558 21.9328 13.6844 21.9328H21.7257C21.9793 21.9328 22.1845 21.7299 22.1845 21.4792V13.5292C22.1845 12.4138 23.103 11.5058 24.2316 11.5058H24.5246C25.6532 11.5058 26.5717 12.4138 26.5717 13.5292V21.4792C26.5717 21.7299 26.7769 21.9328 27.0305 21.9328H35.0718C36.2 21.9328 37.1185 22.8408 37.1185 23.9562V24.2467C37.1185 25.3621 36.2 26.2701 35.0718 26.2701H27.0305ZM21.2669 36.995L18.82 40.1075C18.7649 39.9448 18.7279 39.7739 18.7279 39.5931V33.1323C18.7279 32.3462 18.4497 31.6295 17.9996 31.0492L21.2669 27.8187V34.6737V36.995ZM10.7197 26.5022L7.40736 29.0477C7.19214 28.7722 7.05879 28.4312 7.05879 28.057V20.1459C7.05879 19.7718 7.19208 19.4308 7.40725 19.1553L10.7197 21.7008V23.9562V24.2467V26.5022ZM18.7279 8.6098C18.7279 8.42896 18.7649 8.25793 18.8201 8.0952L21.2669 11.2078V13.5292V20.3842L17.9994 17.1538C18.4496 16.5735 18.7279 15.8568 18.7279 15.0706V8.6098V8.6098ZM27.4893 11.2073L29.9364 8.09481C29.9917 8.25765 30.0287 8.4288 30.0287 8.6098V15.0706C30.0287 15.8567 30.3069 16.5734 30.7569 17.1537L27.4893 20.3842V13.5292V11.2073V11.2073ZM33.5127 18.515H40.0477C40.2309 18.515 40.404 18.5516 40.5688 18.6063L37.4204 21.0256H35.0718H28.138L31.4057 17.7951C31.9926 18.24 32.7176 18.515 33.5127 18.515ZM28.3791 6.97886C28.7577 6.97886 29.1026 7.11075 29.3813 7.32359L26.8064 10.5986H24.5246H24.2316H21.9499L19.3752 7.32342C19.6538 7.11064 19.9987 6.97886 20.3771 6.97886H28.3791ZM15.2431 18.515C16.0383 18.515 16.7635 18.24 17.3506 17.7951L20.6182 21.0256H13.6844H11.3354L8.18717 18.6064C8.35199 18.5516 8.52522 18.515 8.70846 18.515H15.2431ZM15.2431 29.6879H8.70846C8.52533 29.6879 8.35216 29.6513 8.1874 29.5965L11.3354 27.1773H13.6844H20.6182L17.3508 30.4079C16.7637 29.963 16.0385 29.6879 15.2431 29.6879ZM20.3771 41.224C19.9987 41.224 19.6539 41.0923 19.3754 40.8796L21.9503 37.6043H24.2316H24.5246H26.8064L29.3812 40.8794C29.1025 41.0922 28.7576 41.224 28.3791 41.224H20.3771ZM33.5127 29.6879C32.7176 29.6879 31.9926 29.9629 31.4057 30.4078L28.138 27.1773H35.0718H37.4204L40.569 29.5965C40.4042 29.6512 40.2309 29.6879 40.0477 29.6879H33.5127Z" fill="black"/>
</g>
<defs>
<clipPath id="clip0">
<rect width="50.4982" height="49.9245" fill="white"/>
</clipPath>
</defs>
</svg>
