<svg width="51" height="50" viewBox="0 0 51 50" fill="none" xmlns="http://www.w3.org/2000/svg">
<g clip-path="url(#clip0)">
<path d="M44.8374 22.0621C45.5466 21.3784 45.7973 20.3752 45.4909 19.4437C45.1849 18.5121 44.3856 17.8458 43.4047 17.705L33.0399 16.216C32.834 16.1863 32.6557 16.0591 32.5642 15.8748L27.9287 6.5885C27.4903 5.7102 26.6023 5.16455 25.6115 5.16455C24.6206 5.16455 23.7327 5.7102 23.2942 6.5885L18.6587 15.8748C18.5672 16.0591 18.3889 16.1863 18.1835 16.216L7.81818 17.705C6.83732 17.8458 6.03804 18.5121 5.73206 19.4437C5.4256 20.3752 5.6763 21.3784 6.38597 22.0626L13.8864 29.2902C14.0356 29.434 14.1032 29.6408 14.068 29.8434L12.2978 40.0491C12.1301 41.0145 12.5238 41.972 13.3249 42.5478C14.1271 43.1241 15.1699 43.1967 16.0464 42.7424L25.3169 37.9235C25.5018 37.8283 25.7216 37.8283 25.9055 37.9235L35.1765 42.7424C35.5578 42.9403 35.9706 43.0383 36.3814 43.0383C36.9147 43.0383 37.4447 42.8729 37.898 42.5478C38.6992 41.972 39.0928 41.0145 38.9256 40.0495L37.1549 29.8439C37.1197 29.6408 37.1874 29.434 37.3361 29.2907L44.8374 22.0621ZM43.1245 19.6152C43.1741 19.6223 43.2095 19.6413 43.2504 19.6559L36.8369 21.7162L29.963 20.7286L32.041 17.9011C32.2677 18.006 32.5052 18.0896 32.7592 18.1262L43.1245 19.6152ZM35.2304 30.1695L37.0015 40.3761C37.0099 40.4251 37.0025 40.4644 37.0011 40.5074L33.0283 35.1014L31.9455 28.8595L31.856 28.3429L35.2253 29.425C35.1944 29.6704 35.1873 29.9195 35.2304 30.1695ZM14.2221 40.507C14.2207 40.464 14.2134 40.4246 14.2219 40.3756L15.9925 30.169C16.0356 29.9192 16.0286 29.6703 15.9976 29.425L19.367 28.3427L18.1946 35.1014L14.2221 40.507ZM30.8961 27.283C30.7812 27.3937 30.7288 27.5534 30.756 27.7099L30.9818 29.0115L31.5748 32.4317C31.6406 32.8101 31.4923 33.1705 31.1783 33.3958C30.8656 33.6207 30.4736 33.6498 30.1289 33.4718L25.8388 31.2419C25.7673 31.2047 25.6896 31.1863 25.6115 31.1863C25.5333 31.1863 25.4556 31.2047 25.3841 31.2419L21.094 33.4718C20.7493 33.6498 20.3573 33.6207 20.0447 33.3958C19.7306 33.1705 19.5823 32.8101 19.6481 32.4317L20.3349 28.4713C20.3349 28.4712 20.3349 28.471 20.3349 28.4709L20.4669 27.7099C20.4941 27.5534 20.4417 27.3937 20.3268 27.283L19.7688 26.7451C19.7684 26.7448 19.7681 26.7443 19.7677 26.7439L16.8571 23.9389C16.5792 23.6708 16.4849 23.2933 16.6045 22.9282C16.7245 22.5632 17.025 22.3127 17.4087 22.2569L18.8016 22.0568L21.4325 21.679C21.4331 21.679 21.4336 21.6787 21.4342 21.6786L22.2051 21.5678C22.3643 21.5452 22.5016 21.4463 22.5726 21.304L24.7178 17.0068C25.0625 16.3208 26.1605 16.3208 26.5052 17.0068L28.6503 21.304C28.7213 21.4463 28.8586 21.5452 29.0178 21.5678L29.7898 21.6787C29.7901 21.6788 29.7905 21.679 29.7908 21.679L32.0302 22.0006L33.8142 22.2569C34.1979 22.3127 34.4984 22.5632 34.6184 22.9282C34.7381 23.2933 34.6437 23.6708 34.3658 23.9389L31.4552 26.7434C31.4541 26.7444 31.4535 26.7458 31.4524 26.7468L30.8961 27.283ZM30.8132 16.7286C30.9268 16.9561 31.0806 17.1535 31.2515 17.3341L29.1705 20.1658L27.8634 17.5475L27.3811 16.5812C27.381 16.581 27.3809 16.5809 27.3809 16.5808L26.0995 14.014V7.33641C26.1263 7.37034 26.1555 7.39778 26.1777 7.44231L30.8132 16.7286ZM20.4097 16.7286L25.0452 7.44231C25.0674 7.39778 25.0967 7.37034 25.1234 7.33641V14.014L23.842 16.5808C23.842 16.5809 23.8419 16.581 23.8418 16.5812L23.3595 17.5475L22.0546 20.1614L19.9722 17.3334C20.1428 17.153 20.2963 16.9558 20.4097 16.7286ZM18.4642 18.1262C18.7182 18.0895 18.9557 18.0058 19.1823 17.9009L21.2641 20.728L14.3863 21.7162L7.97254 19.6559C8.01341 19.6413 8.0488 19.6223 8.09843 19.6152L18.4642 18.1262ZM7.7486 20.6806C7.71243 20.6456 7.69486 20.6094 7.67037 20.5735L14.1147 22.6436L16.1754 24.6295C16.1755 24.6296 16.1755 24.6296 16.1755 24.6297L19.0731 27.4225L15.6959 28.5072C15.5749 28.2907 15.4326 28.0852 15.249 27.9082L7.7486 20.6806ZM15.138 41.0339C15.0934 41.0571 15.0534 41.0624 15.0114 41.0743L18.9958 35.6525L23.7414 33.186L25.1234 32.4679V35.98C24.8778 36.0268 24.6361 36.097 24.409 36.2149L15.138 41.0339ZM26.8135 36.2149C26.5864 36.097 26.345 36.0268 26.0995 35.98V32.4677L32.2271 35.6525L36.2115 41.0743C36.1696 41.0624 36.1295 41.0571 36.085 41.0339L26.8135 36.2149ZM35.9734 27.9087C35.79 28.0855 35.6478 28.2908 35.5269 28.5072L32.1494 27.4225L35.0474 24.6297C35.0474 24.6296 35.0474 24.6296 35.0475 24.6295L37.108 22.6438L43.5527 20.5735C43.5282 20.6092 43.5108 20.6453 43.4748 20.6801L35.9734 27.9087Z" fill="black"/>
</g>
<defs>
<clipPath id="clip0">
<rect width="50.4982" height="49.9245" fill="white" transform="translate(0.379883)"/>
</clipPath>
</defs>
</svg>
